<svg width="24" height="24" viewBox="0 0 24 24" fill="none" xmlns="http://www.w3.org/2000/svg">
    <path d="M4.99319 12.984C4.77597 12.9838 4.56458 13.0543 4.39099 13.1849C4.21741 13.3155 4.09107 13.4991 4.03108 13.7078C3.97109 13.9166 3.98071 14.1393 4.05849 14.3421C4.13628 14.5449 4.27798 14.7169 4.46219 14.832L7.15019 17.52C7.2431 17.6129 7.35339 17.6865 7.47476 17.7367C7.59613 17.7869 7.7262 17.8128 7.85755 17.8127C7.98889 17.8127 8.11895 17.7867 8.24028 17.7364C8.36161 17.6861 8.47185 17.6124 8.56469 17.5195C8.65754 17.4266 8.73117 17.3163 8.78139 17.1949C8.83162 17.0736 8.85744 16.9435 8.85739 16.8122C8.85735 16.6808 8.83143 16.5507 8.78112 16.4294C8.73082 16.3081 8.6571 16.1978 8.56419 16.105L7.44319 14.985H14.9932C15.2584 14.985 15.5128 14.8796 15.7003 14.6921C15.8878 14.5046 15.9932 14.2502 15.9932 13.985C15.9932 13.7198 15.8878 13.4654 15.7003 13.2779C15.5128 13.0904 15.2584 12.985 14.9932 12.985L4.99319 12.984ZM19.0072 11.015C19.2244 11.0152 19.4358 10.9447 19.6094 10.8141C19.783 10.6835 19.9093 10.4999 19.9693 10.2912C20.0293 10.0824 20.0197 9.85976 19.9419 9.65693C19.8641 9.45411 19.7224 9.28213 19.5382 9.167L16.8502 6.48C16.6626 6.2925 16.4081 6.18721 16.1428 6.1873C15.8776 6.1874 15.6232 6.29286 15.4357 6.4805C15.2482 6.66815 15.1429 6.92259 15.143 7.18786C15.1431 7.45313 15.2486 7.7075 15.4362 7.895L16.5572 9.015H9.00719C8.74198 9.015 8.48762 9.12036 8.30009 9.3079C8.11255 9.49543 8.00719 9.74979 8.00719 10.015C8.00719 10.2802 8.11255 10.5346 8.30009 10.7221C8.48762 10.9096 8.74198 11.015 9.00719 11.015H19.0072Z"
          fill="black"/>
</svg>
