<svg width="18" height="18" viewBox="0 0 18 18" fill="none" xmlns="http://www.w3.org/2000/svg">
<path d="M7.5 16.5V15.75H3.75C3.3375 15.75 2.9845 15.6033 2.691 15.3098C2.3975 15.0163 2.2505 14.663 2.25 14.25V3.75C2.25 3.3375 2.397 2.9845 2.691 2.691C2.985 2.3975 3.338 2.2505 3.75 2.25H7.5V1.5C7.5 1.2875 7.572 1.1095 7.716 0.966003C7.86 0.822503 8.038 0.750503 8.25 0.750003C8.462 0.749503 8.64025 0.821503 8.78475 0.966003C8.92925 1.1105 9.001 1.2885 9 1.5V16.5C9 16.7125 8.928 16.8908 8.784 17.0348C8.64 17.1788 8.462 17.2505 8.25 17.25C8.038 17.2495 7.86 17.1775 7.716 17.034C7.572 16.8905 7.5 16.7125 7.5 16.5ZM11.25 15.75C11.0375 15.75 10.8595 15.678 10.716 15.534C10.5725 15.39 10.5005 15.212 10.5 15C10.4995 14.788 10.5715 14.61 10.716 14.466C10.8605 14.322 11.0385 14.25 11.25 14.25H14.25V3.75H11.25C11.0375 3.75 10.8595 3.678 10.716 3.534C10.5725 3.39 10.5005 3.212 10.5 3C10.4995 2.788 10.5715 2.61 10.716 2.466C10.8605 2.322 11.0385 2.25 11.25 2.25H14.25C14.6625 2.25 15.0157 2.397 15.3097 2.691C15.6038 2.985 15.7505 3.338 15.75 3.75V14.25C15.75 14.6625 15.6033 15.0158 15.3097 15.3098C15.0162 15.6038 14.663 15.7505 14.25 15.75H11.25ZM11.25 9.75C11.0375 9.75 10.8595 9.678 10.716 9.534C10.5725 9.39 10.5005 9.212 10.5 9C10.4995 8.788 10.5715 8.61 10.716 8.466C10.8605 8.322 11.0385 8.25 11.25 8.25H12C12.2125 8.25 12.3907 8.322 12.5347 8.466C12.6787 8.61 12.7505 8.788 12.75 9C12.7495 9.212 12.6775 9.39025 12.534 9.53475C12.3905 9.67925 12.2125 9.751 12 9.75H11.25ZM11.25 6.75C11.0375 6.75 10.8595 6.678 10.716 6.534C10.5725 6.39 10.5005 6.212 10.5 6C10.4995 5.788 10.5715 5.61 10.716 5.466C10.8605 5.322 11.0385 5.25 11.25 5.25H12C12.2125 5.25 12.3907 5.322 12.5347 5.466C12.6787 5.61 12.7505 5.788 12.75 6C12.7495 6.212 12.6775 6.39025 12.534 6.53475C12.3905 6.67925 12.2125 6.751 12 6.75H11.25ZM6 12.75H6.75C6.9625 12.75 7.14075 12.678 7.28475 12.534C7.42875 12.39 7.5005 12.212 7.5 12C7.4995 11.788 7.4275 11.61 7.284 11.466C7.1405 11.322 6.9625 11.25 6.75 11.25H6C5.7875 11.25 5.6095 11.322 5.466 11.466C5.3225 11.61 5.2505 11.788 5.25 12C5.2495 12.212 5.3215 12.3903 5.466 12.5348C5.6105 12.6793 5.7885 12.751 6 12.75ZM6 9.75H6.75C6.9625 9.75 7.14075 9.678 7.28475 9.534C7.42875 9.39 7.5005 9.212 7.5 9C7.4995 8.788 7.4275 8.61 7.284 8.466C7.1405 8.322 6.9625 8.25 6.75 8.25H6C5.7875 8.25 5.6095 8.322 5.466 8.466C5.3225 8.61 5.2505 8.788 5.25 9C5.2495 9.212 5.3215 9.39025 5.466 9.53475C5.6105 9.67925 5.7885 9.751 6 9.75ZM6 6.75H6.75C6.9625 6.75 7.14075 6.678 7.28475 6.534C7.42875 6.39 7.5005 6.212 7.5 6C7.4995 5.788 7.4275 5.61 7.284 5.466C7.1405 5.322 6.9625 5.25 6.75 5.25H6C5.7875 5.25 5.6095 5.322 5.466 5.466C5.3225 5.61 5.2505 5.788 5.25 6C5.2495 6.212 5.3215 6.39025 5.466 6.53475C5.6105 6.67925 5.7885 6.751 6 6.75Z" fill="#F7BFFF"/>
</svg>
