<svg width="28" height="28" viewBox="0 0 28 28" fill="none" xmlns="http://www.w3.org/2000/svg">
<circle cx="14" cy="14" r="14" fill="white" fill-opacity="0.65"/>
<path d="M10.25 13.25H11.75V14.75H10.25V13.25ZM10.25 16.25H11.75V17.75H10.25V16.25ZM13.25 13.25H14.75V14.75H13.25V13.25ZM13.25 16.25H14.75V17.75H13.25V16.25ZM16.25 13.25H17.75V14.75H16.25V13.25ZM16.25 16.25H17.75V17.75H16.25V16.25Z" fill="#666666"/>
<path d="M8.75 21.5H19.25C20.0773 21.5 20.75 20.8273 20.75 20V9.5C20.75 8.67275 20.0773 8 19.25 8H17.75V6.5H16.25V8H11.75V6.5H10.25V8H8.75C7.92275 8 7.25 8.67275 7.25 9.5V20C7.25 20.8273 7.92275 21.5 8.75 21.5ZM19.25 11L19.2507 20H8.75V11H19.25Z" fill="#666666"/>
</svg>
