<svg width="18" height="18" viewBox="0 0 18 18" fill="current" xmlns="http://www.w3.org/2000/svg">
<path d="M12.7634 1.53599L12.0397 1.34024L11.6474 2.78774L12.3719 2.98424C13.0047 3.15553 13.5815 3.48971 14.0449 3.95345C14.5082 4.4172 14.8419 4.99431 15.0127 5.62724L15.2077 6.35099L16.6559 5.96024L16.4609 5.23649C16.2219 4.35028 15.7547 3.54222 15.1059 2.89292C14.4571 2.24361 13.6494 1.77575 12.7634 1.53599ZM12.0779 4.06949L11.3542 3.87374L10.9619 5.32124L11.6864 5.51774C11.8762 5.56915 12.0492 5.66939 12.1881 5.80849C12.3271 5.94758 12.4272 6.12067 12.4784 6.31049L12.6734 7.03424L14.1217 6.64424L13.9267 5.91974C13.8071 5.47663 13.5735 5.07261 13.2491 4.74796C12.9248 4.4233 12.5209 4.18937 12.0779 4.06949Z" fill="current"/>
<path d="M7.18502 1.5H0.750022V2.25C0.745099 5.13725 1.57774 7.96395 3.14702 10.3875C4.30355 12.1746 5.82544 13.6965 7.61252 14.853C10.0361 16.4223 12.8628 17.2549 15.75 17.25H16.5V10.815L11.4825 9.69975L10.0875 11.0948C8.811 10.2745 7.72594 9.18921 6.90602 7.9125L8.30027 6.5175L7.18502 1.5Z" fill="current"/>
</svg>
