<svg width="18" height="14" viewBox="0 0 18 14" fill="none" xmlns="http://www.w3.org/2000/svg">
<path d="M18 5.25V10.5C18 11.4283 17.6207 12.3185 16.9456 12.9749C16.2705 13.6313 15.3548 14 14.4 14H3.6C2.64522 14 1.72955 13.6313 1.05442 12.9749C0.379285 12.3185 0 11.4283 0 10.5V5.25H18ZM4.509 8.75H4.5C4.38181 8.75057 4.26489 8.77378 4.15593 8.81828C4.04696 8.86278 3.94808 8.92772 3.86492 9.00937C3.69698 9.17429 3.60331 9.39731 3.6045 9.62938C3.60509 9.74428 3.62896 9.85795 3.67473 9.96389C3.72051 10.0698 3.7873 10.166 3.87129 10.2468C3.95528 10.3277 4.05482 10.3916 4.16424 10.4351C4.27366 10.4785 4.39081 10.5006 4.509 10.5C4.74769 10.5 4.97661 10.4078 5.1454 10.2437C5.31418 10.0796 5.409 9.85706 5.409 9.625C5.409 9.39294 5.31418 9.17038 5.1454 9.00628C4.97661 8.84219 4.74769 8.75 4.509 8.75ZM9.9 8.75H8.1C7.8613 8.75 7.63239 8.84219 7.4636 9.00628C7.29482 9.17038 7.2 9.39294 7.2 9.625C7.2 9.85706 7.29482 10.0796 7.4636 10.2437C7.63239 10.4078 7.8613 10.5 8.1 10.5H9.9C10.1387 10.5 10.3676 10.4078 10.5364 10.2437C10.7052 10.0796 10.8 9.85706 10.8 9.625C10.8 9.39294 10.7052 9.17038 10.5364 9.00628C10.3676 8.84219 10.1387 8.75 9.9 8.75ZM14.4 0C15.3548 0 16.2705 0.368749 16.9456 1.02513C17.6207 1.6815 18 2.57174 18 3.5H0C0 2.57174 0.379285 1.6815 1.05442 1.02513C1.72955 0.368749 2.64522 0 3.6 0H14.4Z" fill="white"/>
</svg>
