<svg width="65" height="65" viewBox="0 0 65 65" fill="none" xmlns="http://www.w3.org/2000/svg">
<circle opacity="0.79" cx="32.5" cy="32.5" r="32.5" fill="#FF4B47"/>
<g clip-path="url(#clip0_70_1258)">
<path d="M16.0672 38.0692C16.5802 38.0854 18.2396 37.9907 20.887 37.4135C23.5553 36.8334 25.4041 36.2866 25.8995 36.0948C25.9432 36.0779 25.9815 36.0495 26.0103 36.0125C26.039 35.9755 26.0572 35.9314 26.0627 35.8849C26.1846 34.8998 26.3235 33.1752 26.3306 33.0824C26.3768 32.4833 26.3768 32.4833 26.7271 32.3053C27.3438 31.9931 29.5529 31.3164 32.0703 31.3193C34.5877 31.3221 36.872 31.995 37.4883 32.3067C37.84 32.4842 37.84 32.4842 37.8852 33.0843C37.8923 33.1771 38.0308 34.9022 38.1521 35.8868C38.1577 35.9333 38.1758 35.9775 38.2046 36.0144C38.2334 36.0514 38.2717 36.0798 38.3154 36.0967C38.8112 36.289 40.6596 36.8353 43.3279 37.4154C45.9762 37.9907 47.6346 38.0864 48.1476 38.0702C48.1948 38.0688 48.2408 38.0548 48.2807 38.0295C48.3205 38.0042 48.3528 37.9686 48.3742 37.9265C48.9812 36.6837 49.468 35.3858 49.828 34.0504C50.1706 32.7564 50.3983 31.4346 50.5085 30.1005C50.5123 30.0539 50.5033 30.0071 50.4825 29.9652C50.4617 29.9233 50.4299 29.8878 50.3905 29.8626C49.8275 29.4985 47.4172 28.039 43.2617 26.834C39.0211 25.6039 36.5765 25.2455 32.1631 25.2532C27.7497 25.2608 25.198 25.6006 20.9546 26.8336C16.7991 28.0385 14.3873 29.4985 13.8263 29.8626C13.7868 29.8879 13.755 29.9235 13.7342 29.9655C13.7133 30.0074 13.7042 30.0543 13.7078 30.101C13.818 31.435 14.0459 32.7565 14.3888 34.0504C14.7488 35.3858 15.2357 36.6837 15.8426 37.9265C15.8639 37.9681 15.896 38.0033 15.9355 38.0284C15.975 38.0535 16.0204 38.0676 16.0672 38.0692Z" fill="black"/>
</g>
<defs>
<clipPath id="clip0_70_1258">
<rect width="34.4578" height="34.4578" fill="white" transform="translate(56.4736 32.8916) rotate(135)"/>
</clipPath>
</defs>
</svg>
