<svg width="20" height="20" viewBox="0 0 18 18" fill="none" xmlns="http://www.w3.org/2000/svg">
    <path d="M15.7311 6.76875L11.1936 2.23125L11.5123 1.9125C11.7998 1.625 12.1561 1.4845 12.5811 1.491C13.0061 1.4975 13.3623 1.64425 13.6498 1.93125L16.0686 4.35C16.3561 4.6375 16.4998 4.99075 16.4998 5.40975C16.4998 5.82875 16.3561 6.18175 16.0686 6.46875L15.7311 6.76875ZM6.4873 16.05C6.1998 16.3375 5.8468 16.4812 5.4283 16.4812C5.0098 16.4812 4.65655 16.3375 4.36855 16.05L1.9498 13.6312C1.6623 13.3437 1.51855 12.9907 1.51855 12.5722C1.51855 12.1537 1.6623 11.8005 1.9498 11.5125L2.2498 11.2125L6.7873 15.75L6.4873 16.05ZM9.20605 15.525C9.05605 15.675 8.88105 15.75 8.68105 15.75C8.48105 15.75 8.30606 15.675 8.15605 15.525L2.4748 9.84375C2.3248 9.69375 2.2498 9.51875 2.2498 9.31875C2.2498 9.11875 2.3248 8.94375 2.4748 8.79375L3.54355 7.70625C3.69355 7.55625 3.8718 7.48125 4.0783 7.48125C4.2848 7.48125 4.4628 7.55625 4.6123 7.70625L5.79355 8.8875L8.90605 5.775L7.7248 4.59375C7.5748 4.44375 7.4998 4.26875 7.4998 4.06875C7.4998 3.86875 7.5748 3.69375 7.7248 3.54375L8.79356 2.45625C8.94356 2.30625 9.1218 2.23125 9.3283 2.23125C9.5348 2.23125 9.7128 2.30625 9.8623 2.45625L15.5436 8.1375C15.6936 8.2875 15.7686 8.46575 15.7686 8.67225C15.7686 8.87875 15.6936 9.05675 15.5436 9.20625L14.4561 10.275C14.3061 10.425 14.1311 10.5 13.9311 10.5C13.7311 10.5 13.5561 10.425 13.4061 10.275L12.2248 9.09375L9.1123 12.2062L10.2936 13.3875C10.4436 13.5375 10.5186 13.7155 10.5186 13.9215C10.5186 14.1275 10.4436 14.3057 10.2936 14.4562L9.20605 15.525Z"
          fill="url(#paint0_linear_773_1484)"/>
    <defs>
        <linearGradient id="paint0_linear_773_1484" x1="0" y1="10.9879" x2="20.19" y2="10.9879"
                        gradientUnits="userSpaceOnUse">
            <stop stop-color="#3660F9"/>
            <stop offset="1" stop-color="#809BFF"/>
        </linearGradient>
    </defs>
</svg>
