<svg width="18" height="14" viewBox="0 0 18 14" fill="none" xmlns="http://www.w3.org/2000/svg">
<path d="M5.4 7C7.14094 7 8.55 5.63008 8.55 3.9375C8.55 2.24492 7.14094 0.875 5.4 0.875C3.65906 0.875 2.25 2.24492 2.25 3.9375C2.25 5.63008 3.65906 7 5.4 7ZM7.56 7.875H7.32656C6.74156 8.14844 6.09188 8.3125 5.4 8.3125C4.70812 8.3125 4.06125 8.14844 3.47344 7.875H3.24C1.45125 7.875 0 9.28594 0 11.025V11.8125C0 12.5371 0.604688 13.125 1.35 13.125H9.45C10.1953 13.125 10.8 12.5371 10.8 11.8125V11.025C10.8 9.28594 9.34875 7.875 7.56 7.875ZM13.5 7C14.9906 7 16.2 5.82422 16.2 4.375C16.2 2.92578 14.9906 1.75 13.5 1.75C12.0094 1.75 10.8 2.92578 10.8 4.375C10.8 5.82422 12.0094 7 13.5 7ZM14.85 7.875H14.7431C14.3522 8.00625 13.9387 8.09375 13.5 8.09375C13.0612 8.09375 12.6478 8.00625 12.2569 7.875H12.15C11.5763 7.875 11.0475 8.03633 10.5834 8.29609C11.2697 9.01523 11.7 9.96953 11.7 11.025V12.075C11.7 12.1352 11.6859 12.1926 11.6831 12.25H16.65C17.3953 12.25 18 11.6621 18 10.9375C18 9.24492 16.5909 7.875 14.85 7.875Z" fill="white"/>
</svg>
