<svg width="20" height="20" viewBox="0 0 14 17" fill="none" xmlns="http://www.w3.org/2000/svg">
<path fill-rule="evenodd" clip-rule="evenodd" d="M4.9 2.1C4.9 1.54305 5.12125 1.0089 5.51508 0.615076C5.9089 0.221249 6.44305 0 7 0C7.55695 0 8.0911 0.221249 8.48492 0.615076C8.87875 1.0089 9.1 1.54305 9.1 2.1H9.8C10.5426 2.1 11.2548 2.395 11.7799 2.9201C12.305 3.4452 12.6 3.54329 12.6 4.2859H1.4C1.4 3.54329 1.695 3.4452 2.2201 2.9201C2.7452 2.395 3.45739 2.1 4.2 2.1H4.9ZM7 1.4C7.18565 1.4 7.3637 1.47375 7.49497 1.60503C7.62625 1.7363 7.7 1.91435 7.7 2.1H6.3C6.3 1.91435 6.37375 1.7363 6.50503 1.60503C6.6363 1.47375 6.81435 1.4 7 1.4ZM13.3 5.6C13.4857 5.6 13.6637 5.67375 13.795 5.80503C13.9263 5.9363 14 6.11435 14 6.3C14 6.48565 13.9263 6.6637 13.795 6.79497C13.6637 6.92625 13.4857 7 13.3 7H12.6V11.9C12.6 12.457 12.3788 12.9911 11.9849 13.3849C11.5911 13.7788 11.057 14 10.5 14H3.5C2.94305 14 2.4089 13.7788 2.01508 13.3849C1.62125 12.9911 1.4 12.457 1.4 11.9V7H0.7C0.514348 7 0.336301 6.92625 0.205025 6.79497C0.0737498 6.6637 0 6.48565 0 6.3C0 6.11435 0.0737498 5.9363 0.205025 5.80503C0.336301 5.67375 0.514348 5.6 0.7 5.6H13.3ZM7 7.7C6.44305 7.7 5.9089 7.92125 5.51508 8.31507C5.12125 8.7089 4.9 9.24305 4.9 9.8C4.9 10.357 5.12125 10.8911 5.51508 11.2849C5.9089 11.6788 6.44305 11.9 7 11.9C7.55695 11.9 8.0911 11.6788 8.48492 11.2849C8.87875 10.8911 9.1 10.357 9.1 9.8C9.1 9.24305 8.87875 8.7089 8.48492 8.31507C8.0911 7.92125 7.55695 7.7 7 7.7ZM7 9.1C7.18565 9.1 7.3637 9.17375 7.49497 9.30503C7.62625 9.4363 7.7 9.61435 7.7 9.8C7.7 9.98565 7.62625 10.1637 7.49497 10.295C7.3637 10.4263 7.18565 10.5 7 10.5C6.81435 10.5 6.6363 10.4263 6.50503 10.295C6.37375 10.1637 6.3 9.98565 6.3 9.8C6.3 9.61435 6.37375 9.4363 6.50503 9.30503C6.6363 9.17375 6.81435 9.1 7 9.1Z" fill="white"/>
</svg>
