<svg width="20" height="20" viewBox="0 0 24 24" fill="none" xmlns="http://www.w3.org/2000/svg">
<path d="M13.4996 5.5C14.5896 5.5 15.4996 4.58 15.4996 3.5C15.4996 2.96957 15.2889 2.46086 14.9139 2.08579C14.5388 1.71071 14.0301 1.5 13.4996 1.5C12.3896 1.5 11.4996 2.38 11.4996 3.5C11.4996 4.58 12.3896 5.5 13.4996 5.5ZM9.88965 19.38L10.8896 15L12.9996 17V23H14.9996V15.5L12.8896 13.5L13.4996 10.5C14.1849 11.2851 15.0302 11.9145 15.9789 12.3457C16.9276 12.7769 17.9576 13 18.9996 13V11C17.0896 11 15.4996 10 14.6896 8.58L13.6896 7C13.2896 6.38 12.6896 6 11.9996 6C11.6896 6 11.4996 6.08 11.1896 6.08L5.99965 8.28V13H7.99965V9.58L9.78965 8.88L8.18965 17L3.28965 16L2.88965 18L9.88965 19.38Z" fill="url(#paint0_linear_773_1491)"/>
<defs>
<linearGradient id="paint0_linear_773_1491" x1="2.88965" y1="12.25" x2="18.9996" y2="12.25" gradientUnits="userSpaceOnUse">
<stop stop-color="#3660F9"/>
<stop offset="1" stop-color="#809BFF"/>
</linearGradient>
</defs>
</svg>
