<svg width="344" height="171" viewBox="0 0 344 171" fill="none" xmlns="http://www.w3.org/2000/svg">
<mask id="mask0_153_738" style="mask-type:alpha" maskUnits="userSpaceOnUse" x="0" y="0" width="344" height="171">
<rect width="344" height="171" rx="22" fill="url(#paint0_linear_153_738)" fill-opacity="0.72"/>
</mask>
<g mask="url(#mask0_153_738)">
<g opacity="0.78">
<mask id="mask1_153_738" style="mask-type:alpha" maskUnits="userSpaceOnUse" x="-146" y="-78" width="631" height="574">
<mask id="mask2_153_738" style="mask-type:luminance" maskUnits="userSpaceOnUse" x="-146" y="-229" width="763" height="887">
<path d="M605.064 657.451L-145.302 268.941L-134.068 -228.558L616.299 159.951L605.064 657.451Z" fill="white"/>
</mask>
<g mask="url(#mask2_153_738)">
<path d="M-233.551 260.69C-209.968 298.727 -166.213 323.395 -139.908 313.487C-112.441 303.099 -107.062 262.777 -81.3907 249.493C-56.7538 236.757 -18.5539 251.677 15.8697 272.861C50.2933 294.045 84.0714 321.673 118.653 338.351C153.234 355.028 190.782 358.222 204.437 332.136C216.229 309.518 207.339 272.455 202.398 239.307C197.52 206.192 199.422 170.03 224.278 165.233C253.503 159.532 289.571 197.044 320.915 215.553C374.127 246.875 428.107 250.483 458.472 220.627C489.489 190.213 493.091 127.673 467.457 65.2027" stroke="#9254FF" stroke-width="0.5" stroke-miterlimit="10"/>
<path d="M-227.289 269.285C-203.265 306.59 -159.938 330.566 -133.599 320.864C-112.103 312.992 -103.568 287.421 -88.9224 269.983C-84.7199 265.019 -80.0818 260.678 -74.509 257.615C-50.2126 244.42 -13.4494 257.36 19.4124 276.204C41.8896 289.113 63.9257 304.774 86.0109 318.059C96.262 324.246 106.462 329.821 116.812 334.308C129.956 340.027 143.717 343.738 156.575 344.694C175.765 346.11 192.647 341.423 201.279 326.682C203.536 322.888 205.096 318.656 206.216 314.06C211.329 292.895 205.712 263.924 202.294 237.037C201.741 232.781 201.317 228.464 200.958 224.117C198.925 195.306 202.449 167.32 222.866 162.053C226.408 161.152 230.001 160.928 233.772 161.318C248.032 162.633 263.664 171.953 279.522 182.757C292.221 191.42 305.089 201.147 317.308 208.255C320.283 209.973 323.26 211.628 326.239 213.218C342.399 221.781 358.543 227.998 373.975 231.497C406.371 238.729 435.563 233.602 455.17 214.787C461.183 209.037 466.196 202.039 470.14 194.08C486.845 160.665 485.198 109.985 464.393 59.4644" stroke="#9156FF" stroke-width="0.5" stroke-miterlimit="10"/>
<path d="M-220.968 277.93C-196.561 314.397 -153.664 337.739 -127.227 328.279C-105.64 320.658 -96.5958 295.698 -81.8666 278.279C-77.6594 273.357 -73.078 268.961 -67.559 265.785C-43.6652 252.03 -8.21632 263.106 23.0795 279.589C44.4715 290.904 65.2989 304.721 86.043 316.341C95.6851 321.761 105.276 326.566 115.079 330.376C127.493 335.192 140.588 338.025 153.217 338.588C172.003 339.314 189.155 335.189 198.292 321.363C200.675 317.813 202.425 313.794 203.669 309.439C209.597 289.397 205.164 261.464 202.308 234.832C201.881 230.626 201.456 226.291 201.223 221.993C199.565 193.263 202.323 165.07 221.7 158.875C224.995 157.769 228.467 157.409 232.057 157.57C245.649 158.061 260.75 166.401 276.267 176.333C288.743 184.377 301.639 193.82 313.878 200.89C316.859 202.615 319.841 204.275 322.824 205.871C338.946 214.432 355.048 220.895 370.501 224.533C402.876 232.204 432.233 227.371 451.991 208.795C458.074 203.117 463.092 196.216 467.105 188.256C484.019 154.987 482.427 104.188 461.454 53.5826" stroke="#9158FF" stroke-width="0.5" stroke-miterlimit="10"/>
<path d="M-214.639 286.702C-189.785 322.358 -147.377 344.964 -120.841 335.812C-99.1603 328.38 -89.5418 304.134 -74.8565 286.73C-70.643 281.786 -66.0545 277.37 -60.6541 274.11C-37.1638 259.855 -3.09365 268.954 26.6331 283.058C46.9375 292.765 66.5534 304.723 85.9546 314.601C94.9863 319.247 103.966 323.275 113.159 326.305C124.842 330.146 137.333 332.193 149.67 332.325C168.112 332.455 185.41 328.828 195.056 315.861C197.566 312.557 199.442 308.782 200.874 304.704C207.621 285.795 204.311 258.874 202.083 232.533C201.718 228.343 201.418 224.122 201.248 219.84C200.028 191.289 202.019 162.888 220.226 155.623C223.337 154.344 226.625 153.815 229.969 153.709C242.829 153.401 257.4 160.623 272.701 169.874C284.955 177.23 297.879 186.451 310.076 193.449C313.061 195.181 316.049 196.783 318.974 198.35C335.123 206.943 351.184 213.59 366.594 217.464C399.012 225.612 428.539 221.076 448.384 202.772C454.476 197.132 459.627 190.332 463.644 182.402C480.704 149.31 479.169 98.3257 458.155 47.6368" stroke="#905AFF" stroke-width="0.5" stroke-miterlimit="10"/>
<path d="M-208.315 295.454C-183.075 330.253 -141.097 352.212 -114.396 343.344C-92.6211 336.104 -82.49 312.547 -67.72 295.166C-63.4999 290.199 -58.9694 285.795 -53.6228 282.42C-30.4736 267.698 2.14933 274.768 30.3014 286.472C49.5781 294.592 67.9796 304.609 85.9669 312.825C94.386 316.691 102.688 319.967 111.396 322.278C122.409 325.235 134.23 326.391 146.337 326.122C164.436 325.652 181.944 322.498 192.037 310.429C194.674 307.308 196.677 303.781 198.298 299.983C205.866 282.218 203.75 256.291 202.086 230.278C201.783 226.169 201.61 221.999 201.502 217.733C200.724 189.303 201.88 160.727 219.041 152.455C221.966 151.067 225.073 150.238 228.232 149.962C240.421 148.882 254.458 155.042 269.417 163.407C281.384 170.099 294.399 179.064 306.62 185.957C309.612 187.63 312.603 189.303 315.533 190.877C331.647 199.402 347.664 206.363 363.159 210.478C395.622 219.106 425.254 214.903 445.253 196.779C451.416 191.213 456.574 184.449 460.659 176.583C477.931 143.646 476.387 92.5779 455.268 41.7783" stroke="#905DFF" stroke-width="0.5" stroke-miterlimit="10"/>
<path d="M-201.991 304.259C-176.302 338.29 -134.815 359.431 -108.014 350.88C-86.1443 343.9 -75.4334 321.01 -60.6429 303.684C-56.4176 298.761 -51.8799 294.337 -46.6509 290.813C-23.9059 275.523 7.39304 280.617 33.9642 289.967C52.1475 296.387 69.328 304.577 86.0271 311.056C93.8317 314.135 101.519 316.622 109.613 318.139C119.89 320.105 131.039 320.428 142.916 319.756C160.606 318.647 178.326 315.971 188.994 304.876C191.76 302.007 193.953 298.764 195.764 295.249C204.157 278.639 203.237 253.78 202.141 228.035C201.964 223.979 201.854 219.826 201.745 215.608C201.408 187.366 201.792 158.588 217.839 149.332C220.579 147.77 223.436 146.733 226.476 146.256C237.991 144.399 251.43 149.453 266.172 157.058C277.915 163.114 290.959 171.786 303.202 178.639C306.198 180.318 309.133 181.898 312.131 183.511C328.209 192.033 344.249 199.214 359.701 203.569C392.145 212.647 421.948 208.748 442.165 190.909C448.4 185.418 453.565 178.69 457.719 170.89C475.205 138.112 473.652 86.8999 452.426 36.0587" stroke="#8F5FFF" stroke-width="0.5" stroke-miterlimit="10"/>
<path d="M-195.723 313.159C-169.642 346.318 -128.582 366.803 -101.676 358.505C-79.645 351.756 -68.4162 329.567 -53.6023 312.229C-49.3699 307.285 -44.8885 302.806 -39.7145 299.232C-17.374 283.433 12.5356 286.501 37.5228 293.479C54.6105 298.185 70.5048 304.436 85.9101 309.296C93.1001 311.516 100.17 313.273 107.647 314.057C117.188 315.025 127.726 314.542 139.311 313.364C156.657 311.58 174.528 309.415 185.711 299.269C188.605 296.652 190.926 293.595 192.928 290.365C202.15 274.917 202.431 251.068 201.966 225.756C201.917 221.751 201.805 217.647 201.823 213.48C201.866 185.391 201.475 156.406 216.407 146.093C218.961 144.354 221.633 143.144 224.489 142.43C235.33 139.723 248.234 143.698 262.632 150.468C274.151 155.884 287.161 164.227 299.429 170.975C302.431 172.66 305.371 174.245 308.311 175.765C324.354 184.284 340.354 191.719 355.83 196.285C388.323 205.852 418.3 202.26 438.61 184.637C444.855 179.187 450.155 172.564 454.314 164.795C471.951 132.206 470.455 80.8122 449.12 29.9244" stroke="#8F61FF" stroke-width="0.5" stroke-miterlimit="10"/>
<path d="M-189.401 322.149C-162.865 354.459 -122.232 374.214 -95.2852 366.206C-73.1568 359.721 -61.4066 338.177 -46.5063 320.931C-42.2681 316.032 -37.7777 311.468 -32.7229 307.808C-10.7228 291.469 17.7269 292.527 41.1897 297.081C57.1764 300.126 71.8437 304.456 85.889 307.517C92.4609 308.937 98.9126 309.893 105.836 309.906C114.635 309.933 124.498 308.538 135.853 306.951C152.854 304.553 170.94 302.874 182.576 293.65C185.599 291.289 188.112 288.52 190.243 285.477C200.361 271.239 201.782 248.442 201.89 223.404C201.903 219.483 201.92 215.365 202.001 211.281C202.49 183.321 201.318 154.263 215.133 142.821C217.5 140.905 219.986 139.519 222.658 138.566C232.758 135.035 245.124 137.922 259.305 143.919C270.599 148.689 283.64 156.733 295.931 163.44C298.94 165.065 301.885 166.656 304.829 168.247C320.901 176.797 336.862 184.421 352.298 189.166C384.84 199.224 414.929 195.909 435.396 178.542C441.713 173.234 447.022 166.583 451.314 158.917C469.168 126.491 467.665 74.954 446.221 24.0266" stroke="#8E63FF" stroke-width="0.5" stroke-miterlimit="10"/>
<path d="M-183.077 331.144C-156.147 362.629 -115.942 381.648 -88.8232 373.934C-66.5945 367.652 -54.2574 346.859 -39.3336 329.672C-35.088 324.751 -30.6539 320.133 -25.717 316.322C-4.12292 299.47 22.9284 298.471 44.7979 300.549C59.6805 301.92 73.0526 304.278 85.8605 305.662C91.7468 306.308 97.6435 306.425 103.946 305.692C112.003 304.706 121.252 302.493 132.376 300.493C149.031 297.476 167.27 296.253 179.489 288.028C182.644 285.859 185.285 283.412 187.608 280.659C198.562 267.539 201.192 245.904 201.874 221.143C202.015 217.276 202.095 213.242 202.175 209.142C203.047 181.342 201.159 152.115 213.788 139.568C215.904 137.438 218.269 135.844 220.754 134.716C230.174 130.39 242.002 132.18 255.839 137.263C266.908 141.382 279.979 149.124 292.294 155.789C295.309 157.421 298.259 159.018 301.147 160.514C317.185 169.06 333.106 176.941 348.63 181.934C381.16 192.389 411.426 189.453 432.116 172.446C438.507 167.216 443.887 160.637 448.186 153.005C466.259 120.746 464.747 69.1326 443.257 18.1358" stroke="#8E65FF" stroke-width="0.5" stroke-miterlimit="10"/>
<path d="M-176.749 340.184C-149.356 370.805 -109.641 389.048 -82.4135 381.664C-60.0838 375.652 -47.1553 355.55 -32.2054 338.356C-27.9519 333.414 -23.5109 328.843 -18.6922 324.879C2.4961 307.511 28.1455 304.439 48.4816 304.056C62.3208 303.774 74.3295 304.111 85.8319 303.77C91.0958 303.605 96.3689 302.974 102.051 301.357C109.364 299.349 117.933 296.277 128.826 293.862C145.07 290.187 163.594 289.492 176.27 282.273C179.555 280.362 182.391 278.142 184.843 275.646C196.701 263.756 200.418 243.089 201.74 218.708C201.945 214.86 202.088 210.911 202.298 206.797C203.619 179.127 200.883 149.728 212.45 136.135C214.379 133.826 216.492 132.019 218.857 130.684C227.595 125.557 238.882 126.24 252.375 130.401C263.22 133.798 276.322 141.304 288.663 147.86C291.62 149.463 294.641 151.034 297.533 152.602C313.539 161.078 329.486 169.254 344.971 174.495C377.555 185.45 408 182.897 428.788 166.05C435.19 160.864 440.643 154.358 445.012 146.796C463.305 114.772 461.787 62.9481 440.185 11.9125" stroke="#8D67FF" stroke-width="0.5" stroke-miterlimit="10"/>
<path d="M-170.482 349.281C-142.689 378.993 -103.402 396.555 -76.0623 389.438C-53.629 383.632 -40.1718 364.26 -25.132 347.163C-20.8075 342.303 -16.4857 337.576 -11.7221 333.56C9.12514 315.641 33.3022 310.513 52.0348 307.615C64.7627 305.634 75.4659 304.035 85.6604 301.823C90.2354 300.804 94.9483 299.389 100.07 297.05C106.635 294.08 114.586 290.111 125.184 287.242C141.082 282.873 159.76 282.775 172.962 276.47C176.378 274.822 179.409 272.897 182.055 270.696C194.822 260.044 199.693 240.457 201.659 216.395C201.928 212.633 202.2 208.671 202.474 204.643C204.181 177.139 200.721 147.638 211.094 132.925C212.835 130.434 214.761 128.448 216.939 126.868C224.929 120.899 235.676 120.402 248.949 123.837C259.568 126.572 272.702 133.772 285.005 140.251C287.968 141.793 290.93 143.401 293.829 144.908C309.803 153.38 325.711 161.817 341.222 167.276C373.861 178.734 404.425 176.468 425.376 159.886C431.853 154.779 437.378 148.415 441.756 140.821C460.207 108.936 458.746 57.0069 437.031 5.9367" stroke="#8D69FF" stroke-width="0.5" stroke-miterlimit="10"/>
<path d="M-164.158 358.422C-135.898 387.321 -97.0987 404.028 -69.6463 397.247C-47.1086 391.716 -33.0536 373.049 -17.9856 355.948C-13.6526 351.067 -9.32352 346.387 -4.67831 342.218C15.7624 323.777 38.592 316.647 55.6526 311.113C67.2668 307.352 76.7231 303.905 85.604 299.875C89.5507 298.098 93.5736 295.755 98.1336 292.621C104.014 288.649 111.28 283.808 121.582 280.483C137.132 275.481 156.034 275.886 169.765 270.571C173.313 269.186 176.476 267.457 179.317 265.553C192.997 256.151 199.03 237.585 201.576 213.876C201.974 210.169 202.31 206.294 202.584 202.249C204.745 174.88 200.495 145.242 209.734 129.435C211.284 126.828 213.023 124.595 215.015 122.77C222.319 115.988 232.522 114.368 245.449 116.867C255.842 118.935 268.946 125.792 281.341 132.195C284.31 133.743 287.28 135.29 290.183 136.87C306.189 145.373 322.062 154.006 337.6 159.752C370.232 171.683 400.981 169.74 422.097 153.426C428.65 148.4 434.185 142.076 438.634 134.553C457.311 102.842 455.842 50.8402 434.013 -0.331531" stroke="#8C6BFF" stroke-width="0.5" stroke-miterlimit="10"/>
<path d="M-157.833 367.589C-129.167 395.562 -90.7956 411.576 -63.163 405.104C-40.4538 399.82 -25.8639 381.897 -10.7683 364.86C-6.42797 360.027 -2.15359 355.226 2.43632 351.004C22.4695 332.04 43.8831 322.791 59.3932 314.74C69.888 309.253 78.0292 303.842 85.5923 297.912C88.9083 295.373 92.3031 292.13 96.2981 288.263C101.426 283.247 108.005 277.529 118.139 273.814C133.341 268.175 152.468 269.088 166.665 264.735C170.411 263.585 173.705 262.188 176.679 260.48C191.276 252.339 198.473 234.871 201.605 211.453C202.068 207.767 202.468 203.979 202.871 199.989C205.487 172.827 200.443 143.054 208.481 126.044C209.842 123.254 211.391 120.839 213.195 118.766C219.809 111.233 229.404 108.379 242.112 110.073C252.278 111.469 265.415 118.014 277.838 124.374C280.813 125.927 283.789 127.48 286.7 128.998C302.674 137.496 318.51 146.394 334.078 152.294C366.768 164.738 397.705 163.12 418.988 147.078C425.553 142.099 431.162 135.852 435.683 128.401C454.586 96.9383 453.111 44.7333 431.231 -6.43313" stroke="#8C6EFF" stroke-width="0.5" stroke-miterlimit="10"/>
<path d="M-151.507 376.89C-122.365 403.969 -84.4179 419.217 -56.7319 413.053C-33.9126 407.982 -18.7836 390.808 -3.59377 373.872C0.755817 369.019 5.038 364.265 9.5094 359.888C29.2017 340.363 49.1298 329.012 63.0196 318.388C72.4562 311.197 79.2113 303.839 85.4518 295.995C88.136 292.62 90.8992 288.537 94.2638 283.828C98.6367 277.761 104.591 271.193 114.428 267.015C129.217 260.7 148.572 262.124 163.304 258.777C167.184 257.894 170.612 256.697 173.781 255.358C189.3 248.554 197.605 232.089 201.388 209.065C201.98 205.503 202.447 201.667 202.915 197.764C205.987 170.809 200.146 140.831 207.043 122.711C208.213 119.737 209.508 117.103 211.124 114.78C217.047 106.423 226.096 102.361 238.457 103.173C248.331 103.857 261.568 110.124 273.956 116.337C276.939 117.828 279.921 119.387 282.773 120.942C298.717 129.437 314.585 138.57 330.116 144.726C362.869 157.686 393.932 156.363 415.386 140.594C422.028 135.697 427.713 129.527 432.244 122.046C451.377 90.7637 449.96 38.454 427.896 -12.7809" stroke="#8B70FF" stroke-width="0.5" stroke-miterlimit="10"/>
<path d="M-145.244 386.174C-115.689 412.312 -78.1677 426.856 -50.3613 420.971C-27.4321 416.184 -11.6951 399.735 3.52625 382.799C7.88523 377.927 12.1117 373.119 16.5279 368.689C35.8121 348.635 54.3145 335.134 66.642 321.955C74.9508 313.013 80.5086 303.8 85.3572 293.926C87.4041 289.843 89.5355 284.78 92.2657 279.292C95.8804 272.165 101.143 264.639 110.746 260.099C125.187 253.07 144.769 255.146 159.975 252.709C163.99 252.097 167.616 251.204 170.919 250.066C187.366 244.543 196.848 229.126 201.22 206.468C201.879 202.927 202.475 199.216 203.009 195.333C206.476 168.486 199.898 138.477 205.583 119.206C206.497 116.01 207.666 113.227 209.094 110.654C214.323 101.467 222.823 96.256 234.898 96.2153C244.547 96.1485 257.819 102.167 270.235 108.335C273.225 109.831 276.214 111.396 279.072 112.889C294.989 121.311 310.82 130.781 326.447 137.197C359.199 150.641 390.454 149.719 412.079 134.229C418.798 129.482 424.494 123.288 429.099 115.88C448.398 84.7491 447.04 32.3411 424.857 -18.9209" stroke="#8B72FF" stroke-width="0.5" stroke-miterlimit="10"/>
<path d="M-138.925 395.536C-108.889 420.829 -71.8552 434.493 -43.9267 428.957C-20.884 424.388 -4.53606 408.739 10.717 391.872C15.0845 387.048 19.3218 382.154 23.554 377.531C42.4299 356.944 59.5655 341.382 70.1957 325.49C77.3724 314.784 81.6628 303.667 85.1121 291.815C86.5218 286.884 87.951 280.934 90.1755 274.663C93.0275 266.538 97.6617 258.082 107.031 253.109C121.122 245.43 140.871 247.99 156.684 246.611C160.834 246.271 164.66 245.685 168.162 244.853C185.542 240.621 196.142 226.293 201.238 204.007C202.028 200.524 202.69 196.833 203.224 193.003C207.153 166.37 199.771 136.159 204.304 115.764C205.027 112.381 206.006 109.344 207.242 106.586C211.775 96.5628 219.659 90.1593 231.451 89.1912C240.871 88.4367 254.115 94.1019 266.626 100.259C269.623 101.761 272.555 103.228 275.419 104.795C291.308 113.211 307.106 122.884 322.764 129.595C355.582 143.564 387.033 142.977 408.767 127.732C415.5 123.035 421.339 116.955 425.952 109.587C445.485 78.7122 444.121 26.1702 421.817 -25.1866" stroke="#8A74FF" stroke-width="0.5" stroke-miterlimit="10"/>
<path d="M-132.609 404.937C-102.151 429.276 -65.5411 442.226 -37.4204 437.01C-14.2625 432.731 2.63717 417.783 17.9251 400.917C22.3029 396.075 26.4837 391.193 30.6619 386.448C49.1963 365.292 64.8299 347.582 73.8851 329.096C79.9902 316.648 83.0728 303.648 84.9875 289.664C85.7557 283.947 86.546 277.07 88.131 270.008C90.2183 260.807 94.1547 251.447 103.292 245.97C117.033 237.636 137.017 240.721 153.31 240.336C157.598 240.202 161.56 239.89 165.262 239.366C183.58 236.504 195.371 223.24 201.064 201.258C201.92 197.865 202.649 194.195 203.316 190.354C207.71 163.867 199.518 133.589 202.896 111.993C203.424 108.49 204.212 105.197 205.259 102.185C209.092 91.3199 216.423 83.7501 227.93 81.9159C237.122 80.4687 250.405 85.8134 262.883 91.8211C265.889 93.2605 268.827 94.8006 271.699 96.305C287.626 104.753 303.392 114.699 319.018 121.603C351.906 136.101 383.493 135.818 405.469 120.892C412.282 116.28 418.133 110.244 422.821 102.951C442.592 72.2667 441.222 19.5896 418.795 -31.7951" stroke="#8A76FF" stroke-width="0.5" stroke-miterlimit="10"/>
<path d="M-126.294 414.413C-95.3438 437.824 -59.2218 449.95 -30.973 445.091C-7.63107 441.071 9.82292 426.899 25.1456 410.105C29.5328 405.312 33.7252 400.343 37.7827 395.508C55.9084 373.813 70.1005 353.907 77.5081 332.773C82.4714 318.535 84.342 303.571 84.7774 287.611C84.9665 281.139 85.0494 273.293 86.0586 265.401C87.3776 255.118 90.6785 244.884 99.5162 238.932C112.841 229.903 133.129 233.553 149.905 234.17C154.331 234.312 158.495 234.312 162.334 233.994C181.663 232.48 194.585 220.254 200.878 198.647C201.867 195.313 202.662 191.734 203.396 187.913C208.322 161.68 199.252 131.163 201.403 108.392C201.738 104.699 202.333 101.218 203.188 97.9489C206.319 86.2366 213.03 77.3881 224.252 74.6816C233.216 72.5366 246.537 77.5582 259.048 83.5194C262.061 84.964 265.008 86.4413 267.886 88.0197C283.786 96.463 299.523 106.616 315.249 113.787C348.144 128.781 379.935 128.84 402.09 114.201C408.984 109.675 414.914 103.721 419.612 96.4677C439.622 66.0463 438.247 13.1678 415.759 -38.2061" stroke="#8978FF" stroke-width="0.5" stroke-miterlimit="10"/>
<path d="M-119.986 423.959C-88.606 446.469 -52.8402 457.837 -24.5245 453.232C-1.0627 449.507 17.0168 436.086 32.377 419.297C36.7754 414.485 40.9114 409.53 44.915 404.571C62.6328 382.266 75.4402 360.323 81.1284 336.417C84.9445 320.376 85.6626 303.469 84.6127 285.452C84.2198 278.218 83.5263 269.361 83.9555 260.702C84.5025 249.329 87.165 238.214 95.7024 231.784C108.676 222.023 129.137 226.308 146.534 227.938C151.098 228.359 155.465 228.672 159.442 228.632C179.721 228.51 193.782 217.33 200.745 196.069C201.802 192.758 202.73 189.238 203.464 185.472C208.795 159.424 198.972 128.808 199.956 104.889C200.096 101.006 200.497 97.3347 201.159 93.8765C203.584 81.311 209.738 71.2792 220.673 67.6942C229.408 64.8465 242.77 69.5425 255.316 75.3881C258.336 76.8381 261.29 78.3208 264.111 79.8003C279.989 88.1699 295.758 98.7041 311.456 106.072C344.426 121.602 376.424 122.007 398.696 107.623C405.606 103.148 411.614 97.3441 416.389 90.0995C436.577 59.8401 435.262 6.86612 412.647 -44.531" stroke="#897AFF" stroke-width="0.5" stroke-miterlimit="10"/>
<path d="M-113.743 433.601C-81.8619 455.168 -46.5845 465.769 -18.1338 461.459C5.45158 457.962 24.0941 445.332 39.5578 428.653C44.0334 423.86 48.1146 418.849 51.9972 413.8C69.3708 390.987 80.6585 366.782 84.7489 340.226C87.478 322.407 86.9063 303.471 84.362 283.451C83.3195 275.346 81.9758 265.611 81.7576 256.075C81.4629 243.569 83.4839 231.568 91.8518 224.729C104.473 214.299 125.177 219.122 143.065 221.77C147.769 222.472 152.277 222.997 156.457 223.272C177.693 224.551 192.901 214.358 200.536 193.586C201.726 190.404 202.723 186.906 203.524 183.162C209.329 157.269 198.749 126.556 198.428 101.411C198.372 97.3354 198.578 93.4732 199.047 89.7556C200.827 76.4365 206.357 65.1083 216.941 60.5334C225.447 56.909 238.851 61.277 251.364 67.108C254.394 68.4942 257.356 69.9824 260.185 71.4674C276.038 79.8317 291.78 90.5757 307.513 98.2465C340.561 114.317 372.702 115.104 395.225 101.05C402.218 96.6633 408.24 90.9063 413.158 83.7757C433.592 53.7179 432.271 0.683824 409.527 -50.803" stroke="#887CFF" stroke-width="0.5" stroke-miterlimit="10"/>
<path d="M-107.446 443.218C-75.1257 463.798 -40.2699 473.593 -11.6169 469.686C12.093 466.489 31.37 454.624 46.8729 438.023C51.3593 433.281 55.3856 428.215 59.214 423.042C76.177 399.683 86.1354 373.311 88.4222 343.979C90.0587 324.369 88.2576 303.358 84.1437 281.355C82.5129 272.478 80.4507 261.753 79.6464 251.441C78.5701 237.898 79.9477 224.936 88.0138 217.613C100.282 206.512 121.23 211.947 139.615 215.551C144.526 216.572 149.174 217.379 153.493 217.935C175.693 220.628 192.119 211.535 200.433 191.118C201.692 187.96 202.756 184.556 203.691 180.87C209.972 155.205 198.564 124.359 197.065 97.9842C196.812 93.7153 196.756 89.6245 197.097 85.6821C198.165 71.4993 203.067 58.866 213.428 53.5055C221.704 49.1684 235.085 53.1697 247.7 58.9197C250.672 60.2748 253.642 61.7685 256.478 63.2589C272.374 71.6538 288.088 82.6781 303.86 90.5849C336.923 107.094 369.277 108.302 391.987 94.5459C399.063 90.2486 405.166 84.5759 410.097 77.4883C430.779 47.7056 429.454 -5.52373 406.578 -57.0284" stroke="#887FFF" stroke-width="0.5" stroke-miterlimit="10"/>
<path d="M-101.155 452.905C-68.3208 472.53 -33.9489 481.478 -5.15355 477.941C18.687 474.978 38.6044 463.952 54.1508 447.358C58.6502 442.598 62.6882 437.514 66.3954 432.248C82.9499 408.269 91.4401 379.709 92.112 347.687C92.5842 326.235 89.5454 303.202 83.9873 279.132C81.6998 269.371 78.9135 257.718 77.5211 246.553C75.6601 231.897 76.3236 217.998 84.1537 210.224C96.002 198.41 117.202 204.391 136.22 209.102C141.275 210.339 146.129 211.536 150.657 212.343C173.895 216.496 191.486 208.405 200.416 188.379C201.811 185.282 202.943 181.901 203.881 178.271C210.643 152.765 198.467 121.819 195.648 94.1993C195.198 89.7356 194.945 85.4506 195.091 81.2451C195.443 66.1912 199.78 52.3482 209.788 45.9844C217.768 40.8926 231.26 44.5979 243.913 50.3002C246.894 51.6605 249.874 53.0902 252.718 54.5863C268.594 62.9766 284.283 74.2149 300.095 82.4298C333.245 99.4883 365.819 101.053 388.656 87.5594C395.75 83.3852 401.936 77.7276 406.946 70.7193C427.816 41.1064 426.552 -12.2175 403.608 -63.7772" stroke="#8781FF" stroke-width="0.5" stroke-miterlimit="10"/>
<path d="M-94.8719 462.683C-61.5191 481.416 -27.6302 489.512 1.31279 486.278C25.2874 483.55 45.7849 473.335 61.4419 456.855C65.9536 452.148 69.9374 447.008 73.5922 441.547C89.8028 417.05 96.7522 386.18 95.7338 351.413C95.035 328.106 90.7523 302.966 83.6721 276.918C80.7902 266.303 77.274 253.786 75.2236 241.724C72.5732 225.947 72.5849 211.142 80.1123 202.878C91.6077 190.311 113.061 196.914 132.586 202.667C137.784 204.191 142.782 205.676 147.52 206.735C171.74 212.324 190.501 205.313 200.12 185.647C201.584 182.645 202.853 179.325 203.86 175.718C211.039 150.406 198.157 119.327 194.078 90.4906C193.428 85.9005 192.979 81.2805 192.928 76.8798C192.625 60.9853 196.262 45.8511 206.049 38.5498C213.799 32.7347 227.338 36.1055 239.964 41.7233C242.955 43.0189 245.942 44.524 248.795 46.0257C264.653 54.4116 280.383 65.9717 296.174 74.321C329.414 91.9334 362.147 93.8208 385.18 80.6301C392.36 76.5469 398.631 70.9748 403.654 64.0102C424.782 34.6063 423.514 -18.8472 400.431 -70.4279" stroke="#8783FF" stroke-width="0.5" stroke-miterlimit="10"/>
<path d="M-88.6548 472.499C-26.7532 504.937 34.0585 502.582 68.6888 466.393C107.366 425.924 107.648 354.087 83.2687 274.737C75.1651 248.253 63.1677 210.843 76.028 195.495C90.1255 178.706 121.082 194.644 144.351 201.176C173.372 209.252 195.591 200.198 203.831 173.24C212.717 144.091 192.786 106.766 190.676 72.6148C189.649 55.8376 192.714 39.4767 202.146 31.2284C211.442 23.1168 230.004 29.7429 244.714 37.4304C260.555 45.7416 276.262 57.5891 292.164 66.2874C335.81 90.074 378.965 86.5479 400.288 57.3902C421.676 28.2692 420.404 -25.3122 397.181 -76.982" stroke="#8685FF" stroke-width="0.5" stroke-miterlimit="10"/>
<path d="M-93.6748 466.085C-62.1431 482.9 -30.8539 491.252 -2.88464 490.787C24.4807 490.342 48.7198 481.469 66.2865 463.767C79.6825 450.33 88.5924 433.008 93.2684 412.647C97.7216 393.434 98.4002 371.717 95.8882 348.524C94.0046 331.111 90.2588 312.884 85.1156 294.099C82.9834 286.289 80.5845 278.403 77.9865 270.408C74.7526 260.579 71.0102 249.271 68.2699 238.162C63.5327 219.177 61.4113 200.151 69.5098 190.287C78.293 179.672 94.0728 182.017 110.206 186.956C119.739 189.881 129.389 193.718 138.122 196.413C145.989 198.773 153.408 200.039 160.18 200.031C175.469 199.988 187.722 193.825 195.209 180.802C196.663 178.356 197.923 175.592 198.984 172.648C204.786 156.578 201.06 137.303 196.478 117.204C193.195 102.902 189.514 88.3104 188.71 74.1042C188.653 73.5787 188.662 73.0898 188.605 72.5642C187.906 56.2991 190.888 40.4391 200.091 32.4542C206.362 27.0179 216.735 28.0768 227.328 31.7268C232.79 33.6083 238.372 36.2614 243.482 39.0777C249.257 42.1898 255.021 45.8608 260.782 49.6714C271.047 56.4581 281.17 63.6606 291.383 69.6423C303.452 76.718 315.493 81.8013 327.1 84.9522C348.514 90.7553 368.648 89.7832 384.364 81.2947C391.205 77.6544 397.135 72.5241 402.016 66.18C403.874 63.675 405.6 61.0269 407.128 58.1993C423.864 27.6877 420.788 -22.4245 398.764 -70.4174" stroke="#8B88FB" stroke-width="0.5" stroke-miterlimit="10"/>
<path d="M-98.7568 459.744C-66.9122 477.002 -35.3161 486.173 -6.89808 486.557C20.8527 486.856 45.8199 478.725 63.8057 461.332C77.4989 448.118 86.6536 430.856 91.1945 409.997C95.5092 390.491 95.7939 368.344 92.626 344.858C90.2173 327.207 85.9486 308.884 80.2846 290.074C77.9577 282.249 75.3648 274.348 72.5733 266.337C69.0827 256.393 65.1497 245.08 62.2176 233.896C57.226 214.894 54.7191 195.36 62.8673 185.354C71.5647 174.594 87.5723 176.938 103.662 182.001C113.236 185.023 122.926 189.023 131.699 191.955C139.609 194.553 147.005 196.023 153.886 196.436C169.322 197.198 181.794 191.966 189.845 180.007C191.426 177.781 192.811 175.238 194.001 172.445C200.44 157.346 197.648 138.711 193.609 118.896C190.732 104.787 187.328 90.2473 186.591 76.1214C186.534 75.5975 186.544 75.11 186.553 74.6226C185.924 58.3745 188.769 42.2814 198.016 34.2876C204.408 28.7317 214.956 29.7571 225.784 33.6805C231.364 35.6986 236.999 38.3798 242.227 41.3297C248.117 44.6442 253.997 48.4462 259.808 52.4206C270.175 59.4678 280.399 67.0688 290.71 73.5224C302.873 81.1362 314.937 86.8665 326.638 90.6372C348.243 97.6119 369.033 98.1572 385.435 90.2346C392.523 86.8207 398.704 81.7823 403.774 75.4276C405.693 72.9667 407.482 70.2935 409.074 67.4414C426.442 36.761 423.199 -14.629 400.377 -63.3649" stroke="#8F8BF6" stroke-width="0.5" stroke-miterlimit="10"/>
<path d="M-103.833 453.364C-71.7399 471.028 -39.7687 481.05 -10.8994 482.209C17.303 483.352 42.867 475.818 61.338 458.768C75.3273 445.844 84.6634 428.466 89.1365 407.149C93.3139 387.352 93.1408 364.74 89.386 340.998C86.5207 323.147 81.6638 304.761 75.4822 285.856C72.8955 277.979 70.1766 270.029 67.1924 262.003C63.4458 251.944 59.3227 240.626 56.2007 229.298C50.9555 210.277 48.1321 190.205 56.1974 180.053C64.8753 169.257 81.0468 171.494 97.1618 176.717C106.778 179.835 116.507 183.998 125.322 187.166C133.275 190 140.714 191.78 147.575 192.399C163.16 193.893 175.916 189.76 184.53 178.789C186.171 176.676 187.683 174.352 189.001 171.71C196.074 157.575 194.212 139.575 190.712 120.042C188.239 106.125 185.11 91.6359 184.509 77.5563C184.518 77.0704 184.461 76.548 184.47 76.0621C183.976 59.8667 186.553 43.5383 195.913 35.5025C202.491 29.8642 213.214 30.9257 224.214 34.946C229.913 37.0305 235.597 39.8786 240.943 42.9616C246.95 46.408 252.88 50.3735 258.739 54.5803C269.209 61.9562 279.533 69.9537 289.878 76.8404C302.069 84.953 314.226 91.2937 326.085 95.7865C347.947 104.032 369.329 105.98 386.416 98.6199C393.749 95.4311 400.181 90.4838 405.439 84.1186C407.487 81.6684 409.273 78.9339 410.928 76.1268C428.927 45.2086 425.517 -7.38372 401.897 -56.7904" stroke="#948DF2" stroke-width="0.5" stroke-miterlimit="10"/>
<path d="M-108.908 447.051C-76.4973 465.086 -44.2842 475.949 -14.8997 477.985C13.689 479.862 39.9789 473.062 58.9339 456.355C73.22 443.652 82.8018 426.265 87.0746 404.489C91.1158 384.404 90.553 361.367 86.1468 337.405C82.8269 319.356 77.3186 300.871 70.7535 281.946C67.9738 274.054 64.9964 266.052 61.8873 257.979C57.9518 247.842 53.5076 236.447 50.2611 225.081C44.7632 206.043 41.5576 185.469 49.6739 175.178C58.267 164.309 74.6683 166.477 90.7432 171.821C100.401 175.035 110.106 179.324 119.027 182.762C126.958 185.795 134.442 187.813 141.412 188.849C157.08 191.103 170.12 187.925 179.295 178.006C181.061 176.111 182.7 173.935 184.144 171.512C191.782 158.37 190.847 140.933 187.948 121.716C185.878 107.99 182.956 93.5165 182.49 79.4835C182.499 78.9991 182.442 78.4784 182.451 77.9939C182.026 61.7462 184.468 45.2571 193.806 37.246C200.505 31.4899 211.403 32.5184 222.574 36.7042C228.325 38.8185 234.193 41.8358 239.59 45.0838C245.646 48.6943 251.691 52.8584 257.601 57.1576C268.173 64.8601 278.599 73.2514 288.979 80.4991C301.264 89.1437 313.447 96.1239 325.465 101.265C347.587 110.705 369.556 114.116 387.258 107.349C394.902 104.42 401.519 99.5273 406.965 93.1519C409.075 90.6763 410.989 88.0227 412.642 85.0858C431.206 53.8968 427.694 0.217349 403.282 -49.9926" stroke="#9990EE" stroke-width="0.5" stroke-miterlimit="10"/>
<path d="M-113.988 440.811C-81.3284 459.247 -48.7404 470.951 -18.906 473.752C10.0685 476.36 37.0821 470.291 56.4541 453.888C71.0364 441.407 80.862 424.08 85.0028 401.817C88.9086 381.447 87.958 357.989 82.9045 333.741C79.0664 315.459 73.0422 296.881 65.9624 277.933C62.9905 270.026 59.8215 262.01 56.4552 253.886C52.2658 243.637 47.6332 232.238 44.1969 220.799C38.5131 201.781 34.8614 180.673 42.9631 170.207C51.4722 159.268 68.1017 161.435 84.14 166.763C93.7748 170.036 103.586 174.521 112.549 178.192C120.524 181.459 128.052 183.714 135.067 185.059C150.884 188.035 164.207 185.945 173.875 176.967C175.766 175.288 177.53 173.329 179.035 171.019C187.302 158.831 187.222 141.987 184.924 123.087C183.254 109.551 180.605 95.1292 180.206 81.1072C180.215 80.6242 180.158 80.1051 180.168 79.6222C179.876 63.4285 182.118 46.7446 191.503 38.6568C198.321 32.853 209.395 33.7798 220.802 38.1661C226.671 40.4151 232.591 43.4591 238.106 46.8383C244.278 50.5788 250.373 54.904 256.397 59.4692C267.136 67.532 277.599 76.2093 288.078 83.9897C300.458 93.0936 312.667 100.709 324.845 106.495C347.224 117.19 369.848 121.954 388.163 115.776C396.052 113.07 402.917 108.268 408.549 101.952C410.72 99.5204 412.698 96.7733 414.479 93.9178C433.67 62.5667 429.994 7.63575 404.789 -43.2321" stroke="#9D93E9" stroke-width="0.5" stroke-miterlimit="10"/>
<path d="M-119.065 434.524C-86.0879 453.394 -53.2548 465.861 -22.9058 469.529C6.51975 472.968 34.125 467.554 53.9822 451.353C68.8607 439.091 78.8656 421.72 82.9398 399.077C86.6457 378.387 85.309 354.511 79.6765 330.014C75.3878 311.536 68.7827 292.899 61.1911 273.859C58.0277 265.937 54.6676 257.907 51.112 249.7C46.6681 239.407 41.8503 227.866 38.2248 216.355C32.2886 197.389 28.3249 175.754 36.4116 165.183C44.838 154.174 61.6974 156.272 77.7636 161.758C87.4416 165.126 97.2943 169.771 106.301 173.604C114.255 176.998 121.827 179.627 128.952 181.315C144.853 185.042 158.526 183.931 168.749 175.993C170.701 174.424 172.59 172.681 174.287 170.555C183.116 159.28 184.019 143.097 182.251 124.474C180.98 111.128 178.602 96.7571 178.271 82.7459C178.28 82.2644 178.224 81.747 178.233 81.2655C178.009 65.0894 180.054 48.143 189.484 40.1165C196.488 34.2326 207.735 35.1961 219.314 39.6772C225.301 41.9913 231.271 45.1996 236.904 48.7093C243.191 52.6479 249.337 57.0647 255.411 61.7893C266.253 70.1746 276.817 79.2411 287.332 87.3775C299.742 96.9709 312.111 105.221 324.315 111.645C346.887 123.551 370.164 129.729 389.092 124.068C397.29 121.62 404.338 116.873 410.158 110.547C412.391 108.09 414.431 105.387 416.276 102.439C436.093 70.8583 432.253 14.7518 406.259 -36.8396" stroke="#A296E5" stroke-width="0.5" stroke-miterlimit="10"/>
<path d="M-124.088 428.363C-90.8602 447.629 -57.6515 460.926 -26.9188 465.315C2.89247 469.475 31.2186 464.784 51.4914 448.887C66.6652 436.844 76.8491 419.431 80.8585 396.344C84.431 375.374 82.71 351.084 76.5009 326.341C71.7635 307.671 64.5812 288.906 56.4786 269.844C53.0591 261.872 49.5099 253.76 45.8286 245.644C41.1326 235.24 36.1276 223.697 32.3792 212.15C26.1929 193.169 21.8518 171.045 29.9251 160.302C38.3348 149.259 55.3582 151.253 71.3872 156.859C81.1098 160.253 90.9373 165.089 100.051 169.188C108.05 172.814 115.667 175.675 122.772 177.633C138.823 182.073 152.711 182.002 163.49 175.03C165.566 173.674 167.58 172.077 169.337 170.131C178.789 159.868 180.607 144.239 179.369 125.894C178.494 112.737 176.385 98.4182 176.122 84.4188C176.131 83.9389 176.075 83.423 176.084 82.9431C175.928 66.7856 177.841 49.6155 187.318 41.5823C194.442 35.5834 205.864 36.515 217.679 41.1944C223.717 43.6059 229.87 46.912 235.555 50.5153C241.893 54.5461 248.152 59.2266 254.341 64.1455C265.285 72.8506 275.951 82.3035 286.567 90.8976C299.071 101.013 311.467 109.891 323.832 116.95C346.662 130.028 370.522 137.643 390.127 132.533C398.568 130.305 405.865 125.648 411.87 119.313C414.166 116.831 416.268 114.105 418.174 111.202C438.617 79.3956 434.611 22.1935 407.832 -30.1819" stroke="#A799E1" stroke-width="0.5" stroke-miterlimit="10"/>
<path d="M-129.164 422.154C-95.6191 441.849 -62.1006 456.004 -30.9183 461.145C-0.655556 466.059 28.3251 462.052 49.0133 446.457C64.5464 434.735 74.9106 417.212 78.724 393.682C82.1639 372.433 80.0603 347.732 73.2113 322.709C67.9616 303.811 60.268 285.024 51.6575 265.873C48.048 257.887 44.3091 249.761 40.4396 241.563C35.4923 231.049 30.3006 219.503 26.3655 207.816C19.9298 188.821 15.278 166.245 23.2734 155.296C31.6018 144.184 48.7897 146.076 64.9134 151.873C74.6798 155.361 84.5495 160.355 93.706 164.682C101.684 168.502 109.345 171.664 116.561 173.961C132.696 179.143 146.932 180.107 158.2 174.059C160.399 172.916 162.537 171.533 164.419 169.733C174.43 160.372 177.159 145.293 176.512 127.261C176.033 114.292 174.191 100.093 173.995 86.1049C174.005 85.6265 174.014 85.1481 173.959 84.5656C173.935 68.4625 175.586 51.0671 185.176 42.9947C192.42 36.8818 204.081 37.8858 216.002 42.6227C222.158 45.0985 228.362 48.4986 234.163 52.299C240.616 56.5257 246.992 61.3316 253.165 66.372C264.277 75.4309 274.981 85.1635 285.632 94.1769C298.232 104.811 310.657 114.244 323.18 122.004C346.269 136.314 370.713 145.29 390.993 140.727C399.676 138.718 407.22 134.151 413.412 127.807C415.768 125.369 417.932 122.619 419.902 119.693C440.967 87.7313 436.8 29.3044 409.234 -23.7136" stroke="#AC9CDC" stroke-width="0.5" stroke-miterlimit="10"/>
<path d="M-134.243 415.955C-100.447 436.039 -66.6182 450.978 -34.9227 456.902C-4.27663 462.596 25.3574 459.201 46.5247 443.944C62.352 432.44 72.9598 414.913 76.6432 390.98C79.9513 369.457 77.4015 344.314 69.9792 319.119C64.2845 300.033 56.0181 281.122 46.9656 261.987C43.1668 253.988 39.239 245.849 35.1807 237.639C29.9832 227.016 24.6057 215.468 20.4834 203.713C13.8645 184.74 8.7743 161.579 16.8212 150.566C25.0701 139.319 42.4858 141.212 58.5749 147.06C68.385 150.64 78.2981 155.723 87.4305 160.309C95.4549 164.289 103.16 167.749 110.419 170.415C126.704 176.37 141.222 178.26 153.041 173.167C155.3 172.132 157.561 170.96 159.567 169.374C170.134 160.91 173.834 146.485 173.711 128.728C173.626 115.947 171.986 101.765 171.923 87.8262C171.932 87.3493 171.941 86.8724 171.952 86.3275C171.995 70.2445 173.516 52.6303 183.087 44.5849C190.449 38.4276 202.286 39.3319 214.441 44.265C220.714 46.8045 226.969 50.3658 232.952 54.3294C239.52 58.6823 245.945 63.645 252.234 68.8769C263.448 78.2509 274.253 88.3645 284.939 97.7937C297.569 108.906 310.087 118.994 322.769 127.382C346.116 142.847 371.206 153.277 392.027 149.257C401.017 147.501 408.743 142.989 415.12 136.637C417.538 134.175 419.764 131.401 421.796 128.452C443.483 96.2717 439.088 36.6663 410.806 -17.0176" stroke="#B09ED8" stroke-width="0.5" stroke-miterlimit="10"/>
<path d="M-139.328 409.874C-105.213 430.381 -71.0727 446.099 -38.9296 452.835C-7.83241 459.274 22.454 456.555 44.0368 441.53C60.1585 430.242 71.0087 412.779 74.5645 388.376C77.7418 366.58 74.8124 341.032 66.7549 315.562C60.6165 296.288 51.7124 277.285 42.2202 258.097C38.2326 250.085 34.1162 241.933 29.871 233.643C24.4237 222.911 18.7955 211.326 14.5515 199.536C7.68456 180.55 2.2862 156.945 10.2564 145.729C18.4257 134.415 36.07 136.31 52.1261 142.209C61.9806 145.882 71.8716 151.085 81.1122 155.932C89.1819 160.139 96.8678 163.792 104.238 166.793C120.608 173.412 135.471 176.394 147.777 172.213C150.159 171.389 152.543 170.429 154.675 168.919C165.795 161.414 170.464 147.569 170.864 130.086C171.17 117.491 169.797 103.361 169.8 89.4349C169.81 88.9596 169.82 88.4164 169.829 87.9411C169.939 71.8774 171.265 54.0775 180.95 45.9941C188.497 39.7602 200.443 40.5979 212.833 45.7263C219.223 48.3973 225.595 52.0189 231.63 56.0737C238.248 60.5844 244.788 65.7386 251.126 71.1256C262.443 80.8132 273.285 91.2703 284.139 101.116C296.865 112.741 309.413 123.376 322.189 132.352C345.795 149.034 371.466 160.807 392.96 157.328C402.191 155.789 410.228 151.402 416.726 145.006C419.205 142.52 421.492 139.791 423.586 136.819C445.896 104.421 441.338 43.7455 412.275 -10.638" stroke="#B5A1D4" stroke-width="0.5" stroke-miterlimit="10"/>
<path d="M-144.408 403.74C-110.042 424.63 -75.5907 441.122 -42.9354 448.631C-11.4538 455.773 19.5459 453.831 41.6076 439.073C58.0228 428.002 69.0509 410.501 72.5433 385.738C75.5904 363.673 72.2832 337.727 63.593 311.986C56.9478 292.491 47.5396 273.402 37.5434 254.197C33.3028 246.136 28.9987 237.973 24.6322 229.638C18.9349 218.868 13.1246 207.146 8.69443 195.289C1.58051 176.291 -4.18964 152.213 3.83415 140.867C11.9891 129.524 29.7975 131.318 45.8843 137.369C55.7831 141.134 65.7143 146.627 75.0003 151.562C83.0528 155.823 90.8456 159.943 98.1957 163.205C114.717 170.519 129.859 174.55 142.648 171.277C145.152 170.662 147.596 169.808 149.916 168.545C161.588 161.927 167.156 148.692 168.141 131.518C168.838 119.111 167.73 105.034 167.8 91.122C167.81 90.6482 167.82 90.1068 167.829 89.6331C168.07 73.626 169.204 55.5759 178.87 47.5203C186.535 41.1757 198.719 42.086 211.278 47.3727C217.721 50.0709 224.209 53.8196 230.359 58.0679C237.093 62.7029 243.682 68.0115 250.135 73.5875C261.555 83.518 272.499 94.3508 283.388 104.674C296.209 116.806 308.851 128.019 321.721 137.647C345.52 155.433 371.835 168.575 393.997 165.703C403.534 164.415 411.751 160.081 418.434 153.679C420.975 151.168 423.323 148.416 425.479 145.491C448.406 112.947 443.689 51.0809 413.783 -4.02743" stroke="#BAA4CF" stroke-width="0.5" stroke-miterlimit="10"/>
<path d="M-149.494 397.765C-114.807 419.005 -80.0441 436.334 -46.9414 444.645C-15.0738 452.487 16.6411 451.248 39.1161 436.788C55.8252 425.932 67.0966 408.428 70.398 383.168C73.3158 360.834 69.6319 334.49 60.3107 308.478C53.2248 288.799 43.2476 269.655 32.7494 250.363C28.3213 242.29 23.831 234.046 19.2758 225.767C13.3302 214.889 7.33532 203.166 2.71937 191.242C-4.64128 172.23 -10.7823 147.681 -2.77037 136.238C5.30635 124.83 23.3449 126.559 39.3991 132.727C49.343 136.584 59.2557 142.06 68.6487 147.32C76.7458 151.874 84.5215 156.116 91.9823 159.709C108.59 167.746 124.078 172.719 137.413 170.451C140.04 170.044 142.608 169.331 144.986 168.243C157.209 162.505 163.738 149.912 165.241 133.009C166.328 120.787 165.484 106.762 165.621 92.8633C165.63 92.3911 165.64 91.8514 165.649 91.3792C165.958 75.3247 166.961 57.1951 176.678 49.0673C184.463 42.6125 196.821 43.4923 209.55 48.9367C216.11 51.6975 222.649 55.5376 228.916 59.9109C235.765 64.6698 242.405 70.1321 248.906 75.9284C260.495 86.2037 271.476 97.3751 282.402 108.039C295.255 120.64 307.992 132.496 321.021 142.74C345.079 161.726 371.974 176.194 394.74 173.822C404.517 172.748 412.98 168.504 419.846 162.161C422.512 159.73 424.922 156.955 427.076 153.904C450.624 121.148 445.746 58.1619 415.062 2.36512" stroke="#BEA7CB" stroke-width="0.5" stroke-miterlimit="10"/>
<path d="M-154.522 391.684C-119.582 413.303 -84.4437 431.428 -50.8948 440.468C-18.5798 449.107 13.7188 448.43 36.6699 434.305C53.6703 423.73 65.1853 406.159 68.3599 380.511C71.1489 357.914 67.0254 331.143 57.1404 304.902C49.6157 285.041 39.0731 265.778 28.1386 246.506C23.5237 238.421 18.7821 230.131 14.1064 221.809C7.91355 210.826 1.73496 199.104 -3.06467 187.046C-10.6062 168.059 -17.1164 143.045 -9.11512 131.44C-1.1164 119.969 17.151 121.634 33.1738 127.851C43.1624 131.798 53.1185 137.426 62.5546 142.907C70.6325 147.648 78.519 152.149 86.024 156.102C102.783 164.825 118.548 170.833 132.365 169.462C135.05 169.158 137.739 168.654 140.306 167.742C153.079 162.881 160.564 150.926 162.649 134.332C164.187 122.33 163.478 108.289 163.81 94.4755C163.819 94.0049 163.83 93.4671 163.839 92.9965C164.214 76.9644 165.026 58.5891 174.853 50.5605C182.757 43.9974 195.352 44.9495 208.251 50.4828C214.927 53.3728 221.582 57.3384 227.901 61.8001C234.799 66.7134 241.617 72.3982 248.17 78.2782C259.86 88.8595 270.944 100.401 281.971 111.504C294.92 124.605 307.687 136.996 320.809 147.882C345.124 168.059 372.66 183.877 396.028 182.003C406.107 181.244 414.751 176.987 421.801 170.638C424.528 168.183 427.001 165.386 429.215 162.381C453.38 129.419 448.342 65.33 416.884 8.92425" stroke="#C3AAC6" stroke-width="0.5" stroke-miterlimit="10"/>
<path d="M-159.606 385.706C-124.347 407.736 -88.9612 426.584 -54.9016 436.451C-22.2017 445.78 10.8092 445.8 34.1718 431.97C51.4653 421.61 63.2213 404.105 66.2713 378.005C68.9323 355.145 64.435 327.985 53.9863 301.58C45.9594 281.504 34.916 262.224 23.4826 242.868C18.6813 234.771 13.7534 226.469 8.89138 218.136C2.45175 207.049 -3.91036 195.327 -8.89465 183.203C-16.6828 164.273 -23.56 138.728 -15.5686 126.962C-7.64692 115.429 10.8488 117.097 26.9061 123.397C36.9413 127.368 46.9415 133.148 56.4199 138.915C64.5453 143.81 72.4111 148.632 79.9632 152.809C96.8724 162.281 112.852 169.215 127.214 168.769C130.021 168.672 132.832 168.373 135.457 167.567C148.778 163.576 157.153 152.222 159.817 135.932C161.744 124.048 161.296 110.127 161.692 96.3948C161.702 95.8588 161.712 95.3897 161.722 94.8537C162.227 78.8786 162.848 60.3255 172.661 52.1912C180.747 45.6225 193.453 46.4424 206.586 52.1665C213.314 55.0828 220.085 59.1733 226.519 63.8252C233.532 68.8603 240.4 74.6961 247.001 80.7934C258.795 91.6792 269.982 103.522 281.046 115.026C294.092 128.558 306.889 141.547 320.169 153.106C344.743 174.4 372.855 191.592 396.824 190.213C407.143 189.666 416.031 185.497 423.265 179.142C426.053 176.664 428.586 173.912 430.862 170.885C455.642 137.785 450.446 72.5986 418.216 15.4517" stroke="#C8ADC2" stroke-width="0.5" stroke-miterlimit="10"/>
<path d="M-164.705 379.771C-129.127 402.208 -93.4291 421.809 -58.9231 432.394C-25.7743 442.445 7.88246 443.121 31.6573 429.521C49.2432 419.373 61.2411 401.87 64.1658 375.388C66.7639 352.305 61.8298 324.724 50.7561 298.058C42.2942 277.737 30.6858 258.473 18.7552 239.034C13.7035 230.89 8.65444 222.613 3.60797 214.203C-3.07898 203.079 -9.62275 191.291 -14.7267 179.138C-22.695 160.232 -29.938 134.163 -21.9574 122.305C-14.0464 110.678 4.61276 112.315 20.6391 118.73C30.7197 122.79 40.6995 128.686 50.2862 134.705C58.4576 139.82 66.37 144.862 73.9667 149.394C90.9631 159.507 107.286 167.432 122.189 167.973C125.118 168.08 128.051 167.92 130.798 167.32C144.666 164.194 153.992 153.472 157.169 137.451C159.48 125.751 159.293 111.951 159.756 98.167C159.767 97.6328 159.776 97.1654 159.786 96.6313C160.357 80.6789 160.788 61.8837 170.714 53.7818C178.92 47.1065 191.862 47.9988 205.165 53.8104C212.01 56.7879 218.832 60.9673 225.382 65.7411C232.511 70.8969 239.428 76.8824 246.144 83.1636C258.104 94.3862 269.33 106.559 280.43 118.462C293.509 132.451 306.399 146.069 319.84 158.164C344.672 180.632 373.358 199.122 397.991 198.336C408.548 198 417.68 193.92 425.098 187.559C427.945 185.125 430.541 182.284 432.879 179.236C458.275 145.935 452.921 79.6626 419.918 21.9164" stroke="#CCAFBE" stroke-width="0.5" stroke-miterlimit="10"/>
<path d="M-169.799 373.864C-133.964 396.672 -97.9532 417.088 -62.9994 428.389C-29.4661 439.187 4.83719 440.518 29.0892 427.179C46.968 417.243 59.2081 399.74 61.9453 372.776C64.4166 349.435 59.0469 321.434 47.4138 294.541C38.5166 274.043 26.2823 254.625 13.9181 235.205C8.68225 226.983 3.38202 218.726 -1.78435 210.273C-8.71703 199.046 -15.4424 187.191 -20.7303 174.973C-28.9432 156.056 -36.5524 129.531 -28.5806 117.514C-20.7453 105.826 -1.85589 107.401 14.2053 113.964C24.2677 118.079 34.3567 124.16 43.9876 130.395C52.1413 135.694 60.1008 140.954 67.8081 145.809C84.9571 156.595 101.557 165.536 116.939 166.955C119.988 167.265 122.98 167.207 125.849 166.813C140.262 164.546 150.537 154.451 154.225 138.698C156.921 127.18 156.994 113.432 157.523 99.6631C157.534 99.1307 157.543 98.6649 157.618 98.1674C158.254 82.2368 158.56 63.2351 168.47 55.1618C176.795 48.3803 189.912 49.2433 203.384 55.2089C210.345 58.3139 217.22 62.5153 223.885 67.4772C231.063 72.7848 238.094 78.9544 244.861 85.3836C256.924 96.9067 268.252 109.443 279.456 121.71C292.632 136.191 305.554 150.333 319.154 163.093C344.181 186.628 373.571 206.477 398.803 206.247C409.663 206.155 418.974 202.128 426.575 195.761C429.484 193.304 432.139 190.508 434.54 187.439C460.55 154.003 455.039 86.5825 421.266 28.1709" stroke="#D1B2B9" stroke-width="0.5" stroke-miterlimit="10"/>
<path d="M-174.9 368.069C-138.745 391.281 -102.42 412.44 -67.0183 424.451C-33.0995 435.927 1.91358 437.941 26.5765 424.896C44.7466 415.236 57.2285 397.735 59.8432 370.329C62.1898 346.665 56.4486 318.351 44.1935 291.199C34.7979 270.489 22.0668 251.056 9.20728 231.553C3.78631 223.32 -1.69891 215.052 -7.05045 206.589C-14.2282 195.259 -21.1361 183.405 -26.6074 171.123C-35.0643 152.196 -42.9744 125.253 -35.0124 113.145C-27.2521 101.397 -8.13268 102.91 7.90081 109.52C18.0096 113.724 28.1435 119.953 37.8188 126.403C46.0207 131.853 54.026 137.397 61.7782 142.603C79.0144 154.088 95.9566 164.006 111.815 166.299C114.923 166.709 118.099 166.956 121.091 166.633C136.049 165.22 147.269 155.75 151.468 140.262C154.546 128.926 154.88 115.232 155.474 101.477C155.485 100.947 155.494 100.482 155.568 99.9866C156.334 84.1132 156.386 64.9039 166.412 56.7965C174.92 49.9448 188.147 50.7441 201.852 56.8974C208.866 60.0279 215.92 64.4533 222.637 69.5007C229.93 74.9276 237.011 81.245 243.828 87.8211C255.994 99.6422 267.427 112.473 278.667 125.2C291.94 140.168 304.957 154.93 318.588 168.215C343.874 192.91 373.838 214.041 399.668 214.296C410.766 214.412 420.32 210.473 428.105 204.1C431.075 201.621 433.792 198.803 436.254 195.713C462.878 162.08 457.146 93.6192 422.668 34.5172" stroke="#D6B5B5" stroke-width="0.5" stroke-miterlimit="10"/>
<path d="M-180.001 362.207C-143.59 385.783 -106.887 407.713 -71.0406 420.495C-36.6732 432.678 -1.0164 435.338 24.1205 422.62C42.6467 413.205 55.2415 395.638 57.7972 367.896C60.0183 343.981 53.9084 315.291 41.0332 287.883C31.2051 267.001 17.9158 247.452 4.62519 227.97C-0.98028 219.726 -6.64988 211.448 -12.1847 202.909C-19.6068 191.478 -26.6966 179.626 -32.3495 167.215C-40.9854 148.314 -49.3237 120.89 -41.3699 108.627C-33.6843 96.8204 -14.3995 98.237 1.66938 104.994C11.8245 109.287 21.9405 115.562 31.7241 122.258C39.9086 127.889 47.9596 133.715 55.758 139.204C73.1464 151.351 90.3646 162.271 106.699 165.431C109.927 166.042 113.161 166.389 116.274 166.27C131.774 165.706 143.875 156.756 148.646 141.568C152.106 130.414 152.635 116.739 153.359 103.036C153.369 102.507 153.442 102.079 153.453 101.55C154.284 85.7007 154.212 66.2901 164.286 58.2473C172.912 51.3581 186.376 52.1637 200.252 58.4023C207.383 61.5927 214.487 66.1049 221.32 71.2715C228.727 76.8826 235.924 83.315 242.789 90.1026C255.123 102.254 266.594 115.408 277.935 128.558C291.241 143.974 304.355 159.286 318.143 173.227C343.687 199.072 374.224 221.473 400.715 222.247C412.114 222.603 421.847 218.717 429.814 212.34C432.843 209.905 435.621 207.066 438.145 203.956C465.383 170.13 459.495 100.611 424.249 40.9254" stroke="#C0B1DB" stroke-width="0.5" stroke-miterlimit="10"/>
<path d="M-185.104 356.396C-148.372 380.369 -111.419 402.996 -75.0626 416.513C-40.3105 429.363 -3.94642 432.7 21.6001 420.273C40.418 411.067 53.2543 393.504 55.6874 365.394C57.7835 341.23 51.2418 312.132 37.8108 284.572C27.551 263.518 13.7035 243.921 -0.079984 224.358C-5.93363 216.069 -11.786 207.715 -17.4423 199.267C-25.1096 187.802 -32.3797 175.886 -38.2152 163.413C-47.0939 144.503 -55.7952 116.635 -47.8492 104.219C-40.1736 92.3889 -20.7243 93.7764 -4.61819 100.614C5.58351 104.994 15.7448 111.416 25.5729 118.323C33.8057 124.102 41.9026 130.208 49.7474 135.977C67.2229 148.813 84.7821 160.696 101.655 164.753C105.004 165.564 108.359 166.045 111.593 166.128C127.635 166.406 140.74 158.109 145.954 143.152C149.859 132.213 150.582 118.558 151.371 104.871C151.381 104.344 151.456 103.851 151.465 103.39C152.362 87.4985 152.165 68.0201 162.227 59.8755C170.971 52.8833 184.609 53.6608 198.718 60.0847C205.964 63.4005 213.121 67.9331 220.132 73.3186C227.59 79.0122 234.901 85.6245 241.817 92.5563C254.253 105 265.827 118.509 277.207 131.981C290.61 147.876 303.756 163.699 317.703 178.29C343.506 205.212 374.613 228.941 401.7 230.195C413.336 230.756 423.312 226.959 431.462 220.578C434.552 218.12 437.391 215.26 439.975 212.196C467.824 178.245 461.782 107.611 425.77 47.2804" stroke="#B5ACDF" stroke-width="0.5" stroke-miterlimit="10"/>
<path d="M-190.157 350.745C-153.168 375.075 -115.838 398.462 -79.0375 412.741C-43.8387 426.354 -6.89682 430.293 19.1252 418.06C38.2343 409.063 51.3115 391.505 53.6226 363.033C55.5944 338.622 48.6863 309.157 34.7023 281.38C24.0121 260.157 9.6092 240.447 -4.6672 220.872C-10.7044 212.573 -16.7403 204.21 -22.5792 195.687C-30.4897 184.122 -37.9396 172.143 -43.9584 159.676C-53.0154 140.793 -62.0786 112.486 -54.1401 99.9186C-46.5383 88.0316 -26.8593 89.3593 -10.781 96.3074C-0.531344 100.708 9.60999 107.307 19.5465 114.458C27.8263 120.45 35.9064 126.732 43.8601 132.88C61.488 146.369 79.3221 159.239 96.6684 164.151C100.137 165.16 103.55 165.74 106.905 165.958C123.487 167.075 137.467 159.358 143.25 144.699C147.535 133.941 148.516 120.34 149.368 106.736C149.379 106.211 149.453 105.721 149.462 105.261C150.488 89.429 150.041 69.6844 160.217 61.5739C169.08 54.4803 182.954 55.3301 197.166 61.8689C204.529 65.2435 211.802 69.8962 218.864 75.3643C226.436 81.2395 233.796 87.9958 240.826 95.1048C253.366 107.773 265.043 121.634 276.46 135.554C289.96 151.925 303.137 168.32 317.242 183.491C343.239 211.511 375.044 236.562 402.725 238.358C414.598 239.124 424.815 235.414 433.146 229.095C436.36 226.649 439.259 223.835 441.842 220.651C470.303 186.514 464.105 114.843 427.328 53.9413" stroke="#B5A8E4" stroke-width="0.5" stroke-miterlimit="10"/>
<path d="M-195.265 345.016C-157.952 369.674 -120.371 393.815 -83.0581 408.82C-47.473 423.093 -9.82355 427.701 16.6087 415.755C36.0102 406.965 49.3276 389.476 51.4561 360.474C53.3041 335.816 46.03 305.981 31.4295 277.953C20.2454 256.524 5.34977 236.799 -9.4182 217.143C-15.639 208.834 -21.9224 200.425 -27.8814 191.926C-36.0364 180.328 -43.6664 168.284 -49.866 155.689C-59.1003 136.766 -68.589 107.986 -60.6585 95.3314C-53.1294 83.3865 -33.2194 84.6551 -17.1659 91.6483C-6.86871 96.1363 3.32022 102.814 13.3006 110.239C21.5656 116.343 29.7549 123.002 37.7566 129.361C55.473 143.53 73.648 157.352 91.468 163.115C94.993 164.286 98.5896 165.099 102.066 165.451C119.19 167.335 134.105 160.293 140.393 145.895C145.056 135.315 146.295 121.768 147.212 108.179C147.222 107.656 147.296 107.167 147.307 106.644C148.397 90.8342 147.827 70.9569 158.054 62.845C167.1 55.6842 181.084 56.472 195.53 63.1945C202.945 66.6589 210.333 71.4315 217.512 77.0167C225.198 83.0078 232.608 89.9079 239.689 97.1594C252.333 110.118 264.049 124.296 275.634 138.601C289.169 155.411 302.443 172.346 316.644 188.06C342.901 217.144 375.278 243.441 403.617 245.811C415.791 246.814 426.186 243.157 434.7 236.833C437.974 234.431 440.935 231.53 443.578 228.391C472.652 194.067 466.299 121.422 428.757 59.8145" stroke="#ABA4E9" stroke-width="0.5" stroke-miterlimit="10"/>
<path d="M-200.385 339.419C-162.814 364.43 -124.855 389.32 -87.0988 405.076C-51.0659 420.036 -12.7758 425.274 14.0648 413.617C33.7559 405.099 47.2516 387.517 49.3231 358.193C51.0479 333.295 43.3455 303.064 28.1946 274.823C16.582 253.229 1.06951 233.358 -14.1257 213.724C-20.5294 205.406 -26.9955 196.988 -33.1364 188.415C-41.5337 176.719 -49.3443 164.679 -55.6614 152.059C-65.1385 133.194 -74.9223 103.952 -66.9986 91.1487C-59.5407 79.0835 -39.4024 80.3588 -23.3116 87.4954C-12.9673 92.0693 -2.73257 98.89 7.29259 106.521C15.6048 112.835 23.7778 119.667 31.8247 126.365C49.6937 141.178 68.1428 155.973 86.4983 162.615C90.1442 163.916 93.7966 164.892 97.3931 165.442C115.056 168.088 130.903 161.719 137.694 147.582C142.735 137.182 144.165 123.721 145.275 110.153C145.286 109.631 145.36 109.144 145.371 108.623C146.589 92.8734 145.77 72.7342 156.048 64.6226C165.213 57.3623 179.369 58.1881 194.048 65.027C201.579 68.5493 209.019 73.406 216.311 79.1719C224.049 85.2428 231.573 92.3189 238.766 99.8103C251.577 113.089 263.332 127.579 274.955 142.262C288.587 159.54 301.957 177.007 316.253 193.324C342.767 223.524 375.713 251.055 404.645 253.897C417.054 255.101 427.691 251.531 436.387 245.204C439.721 242.78 442.742 239.925 445.447 236.767C475.129 202.327 468.624 128.598 430.32 66.3652" stroke="#B09FED" stroke-width="0.5" stroke-miterlimit="10"/>
<path d="M-205.499 333.788C-167.606 359.185 -129.331 384.787 -91.1285 401.224C-28.0517 428.321 42.632 426.019 47.2046 355.794C48.8066 330.655 40.7405 300.064 24.9748 271.642C12.9344 249.881 -3.13187 229.964 -18.7527 210.286C-34.4371 190.574 -50.1748 170.308 -61.5033 148.338C-71.2218 129.465 -81.3652 99.7938 -73.449 86.9075C-65.9993 74.8213 -45.6942 76.0044 -29.6289 83.2497C-10.6932 91.7075 7.76797 107.723 25.7889 123.241C43.8099 138.758 62.4711 154.421 81.3616 161.936C103.571 170.772 126.059 165.774 134.89 149.045C140.507 138.471 142.142 124.445 143.264 110.34C144.547 94.6152 143.607 74.2832 153.934 66.2365C163.217 58.9422 177.612 59.7102 192.46 66.6961C208.201 74.0952 223.692 87.4663 237.677 102.13C265.772 131.656 288.926 166.933 315.7 198.178C342.473 229.424 375.987 258.247 405.576 261.591C423.099 263.578 437.209 256.183 447.22 244.684C477.513 210.064 470.854 135.32 431.788 72.5271" stroke="#A19BF2" stroke-width="0.5" stroke-miterlimit="10"/>
</g>
</mask>
<g mask="url(#mask1_153_738)">
<rect opacity="0.61" width="666.637" height="798.624" transform="matrix(-0.797267 -0.603626 0.294029 -0.955796 492.569 614.27)" fill="url(#paint1_linear_153_738)"/>
</g>
</g>
</g>
<defs>
<linearGradient id="paint0_linear_153_738" x1="14.1112" y1="27.357" x2="337.693" y2="54.7564" gradientUnits="userSpaceOnUse">
<stop stop-color="#F2F2F2"/>
<stop offset="1" stop-color="#D8E4FF" stop-opacity="0.56"/>
</linearGradient>
<linearGradient id="paint1_linear_153_738" x1="262.087" y1="338.008" x2="545.345" y2="217.078" gradientUnits="userSpaceOnUse">
<stop stop-color="#0048FF"/>
<stop offset="0.45" stop-color="#39E1FF"/>
<stop offset="1" stop-color="#D1C1FF"/>
</linearGradient>
</defs>
</svg>
