<svg width="20" height="20" viewBox="0 0 20 20" fill="none" xmlns="http://www.w3.org/2000/svg">
<path d="M12.0836 4.16668C12.0836 4.71921 11.8641 5.24911 11.4734 5.63982C11.0827 6.03052 10.5528 6.25001 10.0003 6.25001C9.44776 6.25001 8.91786 6.03052 8.52716 5.63982C8.13646 5.24911 7.91696 4.71921 7.91696 4.16668C7.91696 3.61414 8.13646 3.08424 8.52716 2.69354C8.91786 2.30284 9.44776 2.08334 10.0003 2.08334C10.5528 2.08334 11.0827 2.30284 11.4734 2.69354C11.8641 3.08424 12.0836 3.61414 12.0836 4.16668ZM12.917 17.9167C12.917 18.0272 12.8731 18.1332 12.7949 18.2113C12.7168 18.2894 12.6108 18.3333 12.5003 18.3333H5.35696C5.09829 18.3333 4.84667 18.249 4.64019 18.0932C4.43371 17.9374 4.28363 17.7186 4.21266 17.4698C4.14169 17.2211 4.1537 16.956 4.24688 16.7147C4.34006 16.4734 4.50932 16.269 4.72905 16.1325L6.93071 14.765C7.11128 14.6528 7.26025 14.4965 7.36356 14.3107C7.46687 14.125 7.5211 13.9159 7.52113 13.7033V13.3333H8.5103C8.95229 13.3332 9.37614 13.1576 9.68863 12.845L10.0003 12.5338L10.3115 12.845C10.4664 12.9999 10.6502 13.1227 10.8525 13.2065C11.0549 13.2903 11.2717 13.3334 11.4907 13.3333H12.5003V13.705C12.5004 13.9169 12.5543 14.1254 12.6571 14.3107C12.7599 14.4961 12.9081 14.6523 13.0878 14.7646L15.2736 16.1308C15.4932 16.2679 15.6622 16.4728 15.755 16.7144C15.8478 16.9561 15.8594 17.2214 15.788 17.4702C15.7167 17.719 15.5662 17.9378 15.3594 18.0936C15.1527 18.2493 14.9008 18.3335 14.642 18.3333H13.6795C13.7253 18.2029 13.7503 18.0625 13.7503 17.9167V17.8125C13.7502 17.5097 13.6403 17.2173 13.4409 16.9895C13.2415 16.7616 12.9662 16.6139 12.6661 16.5738L7.15988 15.8371C7.05123 15.8242 6.94187 15.8545 6.8554 15.9216C6.76894 15.9886 6.71232 16.087 6.69776 16.1954C6.68321 16.3039 6.71189 16.4137 6.77762 16.5012C6.84335 16.5886 6.94084 16.6467 7.04905 16.6629L12.5557 17.3996C12.6557 17.413 12.7475 17.4623 12.8139 17.5382C12.8803 17.6141 12.917 17.7116 12.917 17.8125V17.9167ZM10.9011 12.2558L10.417 11.7717V10.2125C10.4792 10.2483 10.5367 10.2925 10.5895 10.345L11.3724 11.1283C11.4506 11.2063 11.5565 11.2501 11.667 11.25H12.917C12.988 11.25 13.0578 11.2318 13.1198 11.1972C13.1818 11.1626 13.2339 11.1127 13.2712 11.0523C13.3085 10.9919 13.3298 10.923 13.333 10.8521C13.3362 10.7812 13.3212 10.7106 13.2895 10.6471L12.8728 9.81376C12.8494 9.7631 12.8161 9.71766 12.7748 9.68013C12.7335 9.6426 12.6851 9.61375 12.6324 9.59529C12.5797 9.57683 12.5239 9.56913 12.4682 9.57266C12.4125 9.57618 12.3581 9.59086 12.3082 9.61582C12.2583 9.64077 12.2139 9.6755 12.1777 9.71793C12.1414 9.76037 12.1141 9.80965 12.0973 9.86286C12.0804 9.91606 12.0745 9.9721 12.0797 10.0277C12.085 10.0832 12.1013 10.1371 12.1278 10.1863L12.2428 10.4167H11.8395L11.1786 9.75584C10.8661 9.44339 10.4422 9.26787 10.0003 9.26787C9.55836 9.26787 9.13451 9.44339 8.82196 9.75584L8.16113 10.4167H7.7578L7.8728 10.1863C7.89928 10.1371 7.91563 10.0832 7.92088 10.0277C7.92612 9.9721 7.92015 9.91606 7.90333 9.86286C7.8865 9.80965 7.85916 9.76037 7.82293 9.71793C7.78669 9.6755 7.7423 9.64077 7.69239 9.61582C7.64248 9.59086 7.58807 9.57618 7.53238 9.57266C7.47669 9.56913 7.42086 9.57683 7.3682 9.59529C7.31554 9.61375 7.26713 9.6426 7.22583 9.68013C7.18453 9.71766 7.1512 9.7631 7.1278 9.81376L6.71113 10.6471C6.67939 10.7106 6.66441 10.7812 6.66761 10.8521C6.6708 10.923 6.69207 10.9919 6.72938 11.0523C6.7667 11.1127 6.81883 11.1626 6.88083 11.1972C6.94282 11.2318 7.01263 11.25 7.08363 11.25H8.33363C8.44413 11.25 8.55009 11.2061 8.62821 11.1279L9.41113 10.345C9.46419 10.2925 9.52169 10.2483 9.58363 10.2125V11.7717L9.09946 12.2558C8.94322 12.4121 8.73129 12.5 8.5103 12.5H5.99446C5.85895 12.5 5.72549 12.467 5.60563 12.4037C5.48577 12.3405 5.38315 12.249 5.30664 12.1372C5.23013 12.0253 5.18205 11.8965 5.16657 11.7619C5.15109 11.6273 5.16867 11.4909 5.2178 11.3646L6.46946 8.14584C6.5912 7.83287 6.80464 7.56396 7.08181 7.37437C7.35899 7.18478 7.68698 7.08334 8.0228 7.08334H11.9778C12.3136 7.08334 12.6416 7.18478 12.9188 7.37437C13.196 7.56396 13.4094 7.83287 13.5311 8.14584L14.7832 11.3646C14.8324 11.491 14.8499 11.6274 14.8344 11.7621C14.8189 11.8968 14.7707 12.0256 14.6941 12.1375C14.6175 12.2494 14.5148 12.3409 14.3948 12.404C14.2749 12.4672 14.1413 12.5001 14.0057 12.5H11.4899C11.2689 12.5 11.057 12.4121 10.9007 12.2558" fill="white"/>
</svg>
