<svg width="31" height="31" viewBox="0 0 28 29" fill="none" xmlns="http://www.w3.org/2000/svg">
<path fill-rule="evenodd" clip-rule="evenodd" d="M20.1756 1.61046L20.2609 1.63371C21.6817 2.01475 22.8067 2.31571 23.6915 2.63605C24.597 2.96284 25.3358 3.33613 25.9442 3.90575C26.8296 4.73568 27.449 5.80955 27.7241 6.99155C27.914 7.80271 27.8688 8.62938 27.6983 9.57617C27.5342 10.5036 27.2333 11.6286 26.8522 13.0482L26.1599 15.6302C25.7801 17.0498 25.4779 18.1748 25.1589 19.0609C24.8308 19.965 24.4575 20.7039 23.8879 21.3123C23.085 22.1695 22.053 22.7783 20.9144 23.0663C20.5808 23.8311 20.0947 24.5199 19.4859 25.0904C18.8775 25.66 18.1386 26.0333 17.2332 26.3614C16.3484 26.6817 15.2234 26.9827 13.8038 27.3637L13.7173 27.387C12.2964 27.7667 11.1727 28.0677 10.2453 28.2343C9.29848 28.4035 8.47181 28.4487 7.65935 28.2601C6.47752 27.9841 5.40409 27.3638 4.57485 26.4776C4.00652 25.8705 3.63194 25.1317 3.30385 24.2263C2.98481 23.3415 2.68385 22.2164 2.30281 20.7956L1.61048 18.2148C1.23073 16.794 0.928477 15.6703 0.763144 14.7428C0.593936 13.796 0.548727 12.9694 0.737311 12.1569C1.01333 10.9751 1.63365 9.90166 2.51981 9.07242C3.12689 8.50409 3.86573 8.1295 4.77119 7.80142C5.65598 7.48238 6.78102 7.18142 8.20056 6.80038L8.24448 6.78746L9.21452 6.52913C9.72085 4.72209 10.1652 3.44463 11.0332 2.5185C11.8626 1.63282 12.936 1.01296 14.1177 0.737295C14.9301 0.548712 15.7555 0.59392 16.7036 0.763129C17.6297 0.928462 18.7548 1.23071 20.1756 1.61046ZM8.62939 8.69138C7.2176 9.06984 6.20623 9.34367 5.42864 9.62396C4.64073 9.90813 4.1796 10.1716 3.84377 10.4868C3.23753 11.0542 2.81319 11.7887 2.62444 12.5974C2.5211 13.0469 2.52239 13.579 2.67094 14.4018C2.81948 15.2375 3.09977 16.2838 3.49373 17.7563L4.16281 20.2518C4.55677 21.7243 4.83835 22.7705 5.12639 23.5675C5.41056 24.3554 5.67406 24.8178 5.98923 25.1537C6.55667 25.7599 7.29117 26.1842 8.09981 26.373C8.54802 26.4763 9.08148 26.4738 9.90427 26.3265C10.74 26.178 11.7862 25.8977 13.2587 25.5037C14.7312 25.1085 15.7775 24.8282 16.5757 24.5388C17.3624 24.2547 17.8248 23.9912 18.1606 23.6773C18.3389 23.5094 18.5007 23.329 18.6463 23.1361C18.4066 23.1019 18.168 23.061 17.9307 23.0134C17.0627 22.8403 16.019 22.5613 14.7338 22.2164L14.6589 22.197C13.2394 21.816 12.1143 21.515 11.2295 21.1947C10.3241 20.8679 9.58523 20.4946 8.97685 19.925C8.09095 19.0952 7.47107 18.0214 7.19564 16.8392C7.00706 16.028 7.05227 15.2014 7.22148 14.2546C7.38681 13.3272 7.68906 12.2021 8.06881 10.7826L8.62939 8.69138ZM16.3626 2.67092C15.5385 2.52238 15.0064 2.5198 14.5581 2.62442C13.7495 2.81318 13.015 3.23751 12.4476 3.84375C11.8844 4.44438 11.5369 5.37438 10.935 7.58055L10.6211 8.74563L9.95206 11.2411C9.5581 12.7136 9.27781 13.7599 9.12927 14.5956C8.98073 15.4184 8.97814 15.9518 9.08277 16.4C9.27152 17.2087 9.69586 17.9432 10.3021 18.5106C10.6379 18.8258 11.1004 19.088 11.887 19.3735C12.6852 19.6615 13.7315 19.9418 15.204 20.337C16.5279 20.6923 17.5096 20.9545 18.3079 21.112C19.1022 21.2709 19.6421 21.3097 20.0839 21.2554C20.1803 21.2425 20.2733 21.2261 20.3629 21.2063C21.1715 21.0176 21.906 20.5932 22.4735 19.987C22.7886 19.6512 23.0521 19.1888 23.3363 18.4021C23.6244 17.6039 23.9046 16.5576 24.2999 15.0851L24.969 12.5896C25.3629 11.1171 25.6432 10.0709 25.7918 9.23517C25.939 8.41238 25.9429 7.87892 25.8383 7.43071C25.6495 6.62207 25.2252 5.88758 24.6189 5.32013C24.2831 5.00496 23.8207 4.74275 23.0341 4.4573C22.2345 4.16925 21.1896 3.88896 19.7171 3.49371C18.2446 3.09975 17.1983 2.81946 16.3626 2.67092ZM13.2755 11.6661C13.3085 11.5432 13.3653 11.428 13.4429 11.327C13.5204 11.2261 13.617 11.1415 13.7272 11.0779C13.8375 11.0143 13.9591 10.9731 14.0853 10.9565C14.2115 10.94 14.3397 10.9485 14.4626 10.9815L20.7013 12.6529C20.9426 12.7255 21.1461 12.8892 21.2687 13.1093C21.3913 13.3294 21.4233 13.5886 21.3579 13.832C21.2926 14.0753 21.135 14.2836 20.9186 14.4127C20.7022 14.5417 20.444 14.5814 20.1989 14.5233L13.9601 12.8518C13.7122 12.7852 13.5008 12.623 13.3724 12.4006C13.2441 12.1783 13.2092 11.9141 13.2755 11.6661ZM12.2719 15.4093C12.3049 15.2863 12.3618 15.171 12.4393 15.0699C12.5169 14.9689 12.6137 14.8842 12.7241 14.8206C12.8345 14.757 12.9563 14.7158 13.0826 14.6994C13.2089 14.6829 13.3372 14.6915 13.4602 14.7248L17.2022 15.7271C17.4504 15.7935 17.662 15.9559 17.7905 16.1784C17.919 16.4009 17.9539 16.6653 17.8874 16.9135C17.821 17.1617 17.6586 17.3733 17.4361 17.5018C17.2136 17.6303 16.9492 17.6652 16.701 17.5987L12.9578 16.5951C12.7098 16.5285 12.4985 16.3662 12.3701 16.1439C12.2418 15.9215 12.2069 15.6574 12.2732 15.4093" fill="url(#paint0_linear_90_176)"/>
<defs>
<linearGradient id="paint0_linear_90_176" x1="14.2312" y1="0.614731" x2="14.2312" y2="28.3827" gradientUnits="userSpaceOnUse">
<stop stop-color="#3660F9"/>
<stop offset="1" stop-color="#605CCB" stop-opacity="0.28"/>
</linearGradient>
</defs>
</svg>
