<svg width="15" height="12" viewBox="0 0 15 12" fill="none" xmlns="http://www.w3.org/2000/svg">
<path d="M1.14994 5.19355C0.704551 5.19355 0.343491 5.55461 0.343491 6C0.343491 6.44539 0.704551 6.80645 1.14994 6.80645V5.19355ZM14.7202 6.57025C15.0351 6.25531 15.0351 5.74469 14.7202 5.42975L9.58796 0.297526C9.27303 -0.0174131 8.76241 -0.0174131 8.44747 0.297526C8.13253 0.612465 8.13253 1.12308 8.44747 1.43802L13.0094 6L8.44747 10.562C8.13253 10.8769 8.13253 11.3875 8.44747 11.7025C8.76241 12.0174 9.27303 12.0174 9.58796 11.7025L14.7202 6.57025ZM1.14994 6.80645H14.1499V5.19355H1.14994V6.80645Z" fill="#3660F9"/>
</svg>
