<svg width="16" height="16" viewBox="0 0 16 16" fill="none" xmlns="http://www.w3.org/2000/svg">
<path fill-rule="evenodd" clip-rule="evenodd" d="M12 1.83334C11.8674 1.83334 11.7402 1.78067 11.6464 1.6869C11.5527 1.59313 11.5 1.46595 11.5 1.33334C11.5 1.20074 11.5527 1.07356 11.6464 0.97979C11.7402 0.886022 11.8674 0.833344 12 0.833344H14.6667C14.7655 0.83343 14.8621 0.862802 14.9442 0.917749C15.0264 0.972695 15.0904 1.05075 15.1282 1.14206C15.166 1.23337 15.1759 1.33384 15.1566 1.43077C15.1374 1.5277 15.0898 1.61675 15.02 1.68668L13.2067 3.50001H14.6667C14.7993 3.50001 14.9265 3.55269 15.0202 3.64646C15.114 3.74023 15.1667 3.8674 15.1667 4.00001C15.1667 4.13262 15.114 4.2598 15.0202 4.35356C14.9265 4.44733 14.7993 4.50001 14.6667 4.50001H12C11.9012 4.49992 11.8046 4.47055 11.7224 4.41561C11.6403 4.36066 11.5763 4.2826 11.5385 4.19129C11.5007 4.09998 11.4908 3.99952 11.51 3.90259C11.5293 3.80565 11.5768 3.7166 11.6467 3.64668L13.46 1.83334H12ZM9 5.83334C8.86739 5.83334 8.74022 5.78066 8.64645 5.6869C8.55268 5.59313 8.5 5.46595 8.5 5.33334C8.5 5.20074 8.55268 5.07356 8.64645 4.97979C8.74022 4.88602 8.86739 4.83334 9 4.83334H11C11.0988 4.83343 11.1954 4.8628 11.2776 4.91775C11.3597 4.9727 11.4237 5.05075 11.4615 5.14206C11.4993 5.23337 11.5092 5.33384 11.49 5.43077C11.4707 5.5277 11.4232 5.61675 11.3533 5.68668L10.2067 6.83334H11C11.1326 6.83334 11.2598 6.88602 11.3536 6.97979C11.4473 7.07356 11.5 7.20074 11.5 7.33334C11.5 7.46595 11.4473 7.59313 11.3536 7.6869C11.2598 7.78066 11.1326 7.83334 11 7.83334H9C8.90117 7.83326 8.80459 7.80388 8.72245 7.74894C8.6403 7.69399 8.57628 7.61593 8.53848 7.52463C8.50067 7.43332 8.49077 7.33285 8.51002 7.23592C8.52928 7.13899 8.57683 7.04993 8.64667 6.98001L9.79333 5.83334H9Z" fill="white"/>
<path d="M7.99967 14.6667C11.6817 14.6667 14.6663 11.682 14.6663 8.00001C14.6663 7.69134 14.2037 7.64001 14.0443 7.90468C13.7045 8.46757 13.241 8.94575 12.689 9.30299C12.137 9.66023 11.5109 9.88717 10.8582 9.96661C10.2055 10.0461 9.54329 9.97592 8.92171 9.76153C8.30012 9.54713 7.73547 9.19409 7.27053 8.72915C6.80559 8.26421 6.45255 7.69957 6.23816 7.07798C6.02376 6.45639 5.95363 5.79416 6.03307 5.14146C6.11252 4.48875 6.33945 3.86268 6.6967 3.31067C7.05394 2.75866 7.53211 2.29518 8.09501 1.95534C8.35967 1.79534 8.30834 1.33334 7.99967 1.33334C4.31767 1.33334 1.33301 4.31801 1.33301 8.00001C1.33301 11.682 4.31767 14.6667 7.99967 14.6667Z" fill="white"/>
</svg>
