<svg width="20" height="20" viewBox="0 0 21 22" fill="none" xmlns="http://www.w3.org/2000/svg">
<path d="M16.19 13.9757C17.2509 13.9757 18.2683 14.3972 19.0184 15.1473C19.7686 15.8974 20.19 16.9149 20.19 17.9757C20.19 19.0366 19.7686 20.054 19.0184 20.8042C18.2683 21.5543 17.2509 21.9757 16.19 21.9757C15.1291 21.9757 14.1117 21.5543 13.3616 20.8042C12.6114 20.054 12.19 19.0366 12.19 17.9757C12.19 16.9149 12.6114 15.8974 13.3616 15.1473C14.1117 14.3972 15.1291 13.9757 16.19 13.9757ZM16.19 15.9757C15.6596 15.9757 15.1509 16.1864 14.7758 16.5615C14.4007 16.9366 14.19 17.4453 14.19 17.9757C14.19 18.5062 14.4007 19.0149 14.7758 19.3899C15.1509 19.765 15.6596 19.9757 16.19 19.9757C16.7204 19.9757 17.2291 19.765 17.6042 19.3899C17.9793 19.0149 18.19 18.5062 18.19 17.9757C18.19 17.4453 17.9793 16.9366 17.6042 16.5615C17.2291 16.1864 16.7204 15.9757 16.19 15.9757ZM4.24 13.5157C4.24 13.5157 5.65 12.0957 5.66 9.27573C5.3 7.08573 6.16 4.51573 8.13 2.55573C11.06 -0.374271 15.33 -0.854271 17.69 1.47573C20.02 3.83573 19.54 8.10573 16.61 11.0357C14.65 13.0057 12.08 13.8657 9.89 13.5057C7.07 13.5157 5.65 14.9257 5.65 14.9257L1.41 19.1657L0 17.7557L4.24 13.5157ZM16.26 2.90573C14.69 1.34573 11.69 1.81573 9.54 3.97573C7.4 6.11573 6.92 9.12573 8.48 10.6857C10.05 12.2457 13.05 11.7657 15.19 9.62573C17.35 7.47573 17.82 4.47573 16.26 2.90573Z" fill="url(#paint0_linear_773_1484)"/>
<defs>
<linearGradient id="paint0_linear_773_1484" x1="0" y1="10.9879" x2="20.19" y2="10.9879" gradientUnits="userSpaceOnUse">
<stop stop-color="#3660F9"/>
<stop offset="1" stop-color="#809BFF"/>
</linearGradient>
</defs>
</svg>
